<?xml version="1.0" standalone="no"?>
<!DOCTYPE svg PUBLIC "-//W3C//DTD SVG 20010904//EN"
 "http://www.w3.org/TR/2001/REC-SVG-20010904/DTD/svg10.dtd">
<svg version="1.0" xmlns="http://www.w3.org/2000/svg"
 width="1670.000000pt" height="2001.000000pt" viewBox="0 0 1670.000000 2001.000000"
 preserveAspectRatio="xMidYMid meet">

<g transform="translate(0.000000,2001.000000) scale(0.100000,-0.100000)"
fill="#000000" stroke="none">
<path d="M9788 19995 c-497 -126 -917 -942 -884 -1717 11 -257 60 -467 152
-656 47 -96 67 -126 132 -192 79 -79 141 -118 252 -156 42 -15 83 -19 175 -19
145 0 233 22 369 92 75 39 108 64 191 147 55 56 124 137 154 181 204 309 331
772 331 1205 0 160 -5 200 -23 200 -9 0 -507 -214 -751 -322 -54 -25 -103 -53
-109 -64 -12 -20 -17 -477 -6 -489 4 -3 86 28 183 69 97 42 184 76 193 76 36
0 -13 -180 -76 -277 -160 -247 -438 -258 -553 -21 -79 162 -75 387 14 703 92
331 237 508 432 531 41 5 67 1 126 -20 58 -20 77 -23 88 -13 36 29 238 350
259 408 18 53 2 87 -81 172 -127 130 -211 167 -396 173 -79 2 -133 -1 -172
-11z"/>
<path d="M8655 19711 c-82 -38 -199 -92 -259 -120 l-109 -51 6 -215 c6 -181
20 -451 51 -982 3 -46 1 -83 -4 -83 -22 0 -186 473 -331 959 -52 173 -99 316
-107 318 -7 3 -128 -51 -269 -121 l-256 -126 7 -98 c4 -53 27 -338 51 -632 51
-609 91 -1162 100 -1360 4 -74 8 -145 11 -157 2 -13 0 -23 -5 -23 -11 0 -68
206 -165 595 -143 575 -216 941 -288 1447 -23 164 -46 298 -49 298 -11 0 -412
-187 -726 -337 l-263 -126 0 -106 c0 -226 -20 -1300 -26 -1369 -3 -41 -8 -71
-11 -68 -3 3 -12 72 -19 154 -14 155 -38 290 -54 306 -14 14 -66 -13 -291
-152 -199 -122 -368 -219 -497 -287 l-74 -38 6 -106 c12 -201 28 -386 35 -399
5 -9 60 14 201 83 107 52 199 95 204 95 15 0 -2 -143 -28 -224 -41 -131 -111
-217 -218 -273 -43 -22 -66 -27 -123 -27 -166 0 -284 118 -331 330 -21 99 -29
318 -15 459 16 164 44 272 102 392 108 225 261 311 449 254 59 -18 75 -20 82
-9 4 7 64 124 133 259 l125 247 -83 74 c-152 138 -210 168 -360 188 -216 29
-416 -48 -598 -230 -168 -168 -278 -379 -354 -680 -49 -196 -57 -283 -62 -668
-5 -349 -4 -368 17 -460 67 -292 155 -476 298 -624 209 -217 482 -266 765
-139 294 132 511 431 606 836 11 50 29 126 40 170 l19 80 -5 -115 c-2 -63 -11
-211 -19 -329 -8 -118 -14 -241 -14 -273 0 -57 1 -59 23 -52 101 31 558 250
605 290 l37 32 3 155 3 156 106 41 c58 23 107 39 109 37 3 -2 18 -74 34 -160
34 -180 40 -207 48 -207 3 0 144 68 313 150 169 83 312 150 318 150 12 0 15
-11 33 -135 11 -75 16 -90 31 -89 9 1 119 57 243 125 l226 124 -6 95 c-3 52
-15 201 -26 330 -10 129 -22 271 -25 315 l-6 80 23 -25 c26 -29 170 -259 308
-492 52 -87 99 -158 106 -158 17 0 491 236 498 249 4 5 -7 157 -23 338 -51
564 -74 947 -91 1498 -17 572 -22 685 -29 685 -3 0 -73 -31 -156 -69z m-2036
-1467 c53 -300 121 -747 121 -802 0 -30 -5 -35 -47 -53 -27 -11 -60 -23 -74
-26 l-26 -5 -7 154 c-18 420 -36 913 -35 998 1 113 -2 125 68 -266z"/>
<path d="M11145 18478 c-78 -28 -164 -110 -188 -182 -37 -109 -11 -202 76
-264 l50 -36 -93 -23 c-51 -12 -94 -24 -96 -26 -14 -14 -284 -1445 -284 -1503
0 -31 3 -34 29 -34 34 0 232 56 356 101 61 22 89 38 96 53 5 11 26 125 48 251
49 282 60 335 71 335 5 0 11 -8 14 -18 10 -30 71 -83 112 -97 29 -10 40 -19
42 -37 2 -15 -35 -100 -97 -225 -55 -111 -103 -218 -107 -238 -6 -33 -3 -39
34 -74 67 -64 137 -86 267 -85 214 2 358 75 571 288 139 139 208 233 257 349
74 175 31 374 -95 438 -37 19 -63 22 -198 26 -218 5 -240 9 -240 37 0 23 57
84 99 106 27 14 37 5 47 -40 15 -68 42 -69 216 -10 151 52 226 87 244 116 20
30 37 202 29 287 -13 140 -53 216 -137 262 -177 96 -426 -9 -713 -300 -93 -95
-134 -143 -213 -254 -18 -25 -32 -38 -32 -29 0 9 18 92 40 185 22 92 40 176
40 186 0 13 -9 17 -40 17 -22 0 -40 3 -40 8 0 4 16 17 35 29 50 33 85 91 97
165 19 110 -18 185 -113 233 -58 30 -103 31 -184 3z m161 -77 c55 -25 74 -54
74 -114 0 -115 -102 -207 -231 -207 -58 0 -64 2 -100 38 -45 46 -54 75 -40
129 17 64 65 121 124 149 62 29 117 30 173 5z m919 -225 c78 -42 105 -109 105
-266 0 -134 -11 -173 -54 -199 -37 -23 -238 -101 -260 -101 -8 0 -18 13 -24
28 -15 44 -39 62 -82 62 -54 0 -83 -13 -136 -62 -55 -51 -84 -104 -84 -154 0
-71 8 -74 229 -74 300 -1 332 -18 339 -184 4 -77 0 -106 -19 -165 -75 -240
-345 -500 -607 -586 -82 -26 -222 -25 -293 3 -101 40 -99 32 -39 168 44 99
117 253 124 261 1 2 29 -7 62 -18 113 -40 288 -6 367 71 42 43 48 77 16 106
-19 17 -43 19 -248 24 -209 5 -229 7 -267 27 -58 31 -84 77 -84 145 0 196 108
396 340 629 135 135 252 221 371 271 122 51 170 54 244 14z m-929 -243 c-8
-28 -103 -467 -151 -698 -41 -197 -96 -486 -110 -583 -8 -53 -32 -66 -190
-110 -153 -43 -151 -43 -147 -7 11 100 247 1343 257 1354 9 8 264 59 303 60
37 1 43 -2 38 -16z m493 -917 c16 -19 -36 -50 -118 -71 -69 -18 -106 -14 -163
18 -67 36 -50 47 86 57 163 11 183 11 195 -4z"/>
<path d="M13212 18464 c-35 -24 -60 -83 -200 -464 -71 -195 -261 -710 -422
-1145 -306 -828 -423 -1155 -417 -1161 2 -2 185 -8 408 -14 385 -10 560 -19
749 -40 139 -16 176 -14 195 13 18 25 235 678 235 708 0 10 -3 19 -8 19 -4 0
-43 4 -87 10 -44 5 -184 18 -311 29 -127 11 -238 23 -247 27 -21 8 -18 22 38
174 123 331 389 971 625 1500 111 249 141 322 135 328 -7 7 -445 31 -575 31
-71 1 -101 -3 -118 -15z"/>
<path d="M14500 18110 c-10 -19 -57 -138 -105 -265 -48 -126 -208 -540 -355
-920 -466 -1200 -570 -1475 -570 -1505 0 -19 8 -20 183 -20 213 1 417 14 445
29 11 6 27 30 36 53 8 24 45 126 82 228 152 426 355 941 544 1380 129 301 200
453 207 446 3 -3 0 -81 -6 -174 -7 -93 -9 -176 -5 -185 7 -20 26 -23 212 -42
79 -7 147 -16 150 -19 3 -4 -153 -403 -347 -888 -388 -969 -431 -1079 -431
-1108 0 -20 6 -20 347 -18 l348 3 19 55 c78 223 217 594 321 855 115 288 417
1000 430 1013 9 10 92 2 262 -24 217 -32 221 -32 238 10 42 101 201 663 191
674 -8 7 -743 118 -1143 172 -334 45 -403 56 -415 68 -4 4 11 47 32 95 27 61
36 89 27 92 -7 3 -162 11 -346 17 l-333 13 -18 -35z"/>
<path d="M7415 15703 c-22 -1 -103 -8 -180 -14 -1542 -119 -3055 -715 -4267
-1682 -318 -253 -692 -603 -940 -880 -866 -964 -1480 -2115 -1792 -3362 -146
-583 -219 -1135 -232 -1760 -31 -1394 322 -2790 1016 -4020 462 -817 1080
-1557 1815 -2170 1145 -956 2558 -1568 4050 -1755 790 -99 1641 -72 2424 76
1361 257 2607 857 3678 1772 173 147 611 582 771 765 456 521 871 1146 1168
1762 954 1977 1041 4255 239 6295 -720 1831 -2095 3324 -3855 4182 -941 460
-1911 717 -2968 788 -136 9 -823 12 -927 3z m1025 -219 c1333 -105 2566 -533
3673 -1273 646 -432 1248 -988 1743 -1611 782 -984 1317 -2181 1534 -3433 75
-436 100 -714 107 -1208 7 -488 -12 -788 -77 -1227 -215 -1451 -846 -2812
-1821 -3927 -145 -166 -517 -539 -679 -681 -539 -471 -1027 -797 -1696 -1132
-812 -407 -1690 -655 -2659 -752 -437 -43 -1000 -41 -1475 6 -339 33 -848 123
-1222 215 -469 115 -1200 416 -1728 710 -2236 1245 -3696 3512 -3910 6074 -18
210 -24 835 -11 1050 44 712 176 1381 401 2040 122 355 199 533 437 1009 349
698 774 1292 1328 1855 230 234 362 357 568 529 612 512 1333 942 2075 1236
828 330 1713 513 2597 540 195 6 625 -4 815 -20z"/>
<path d="M7580 15303 c-262 -8 -645 -46 -931 -93 -1155 -191 -2251 -651 -3195
-1341 -172 -126 -248 -189 -237 -199 4 -5 69 -25 143 -45 405 -110 883 -254
930 -281 l25 -14 -30 6 c-41 8 -215 53 -713 184 l-424 111 -51 -40 c-29 -22
-67 -55 -85 -73 l-32 -34 247 -68 c137 -37 374 -110 528 -162 154 -51 404
-131 555 -178 318 -98 528 -169 544 -186 38 -39 -371 85 -1084 328 -195 67
-410 133 -772 237 l-47 14 -72 -67 -72 -68 214 -67 c575 -183 1795 -580 1879
-612 86 -33 129 -55 106 -55 -10 0 -241 67 -481 140 -88 27 -504 150 -925 274
-421 124 -787 232 -815 240 -31 10 -53 12 -59 6 -5 -5 -8 -11 -5 -13 2 -2 92
-33 199 -68 626 -207 1700 -573 1757 -599 72 -33 106 -58 97 -71 -10 -17 -42
-9 -310 77 -358 114 -736 227 -1029 309 -294 82 -813 215 -840 215 -19 0 -114
-85 -104 -93 2 -2 56 -17 119 -32 345 -83 1735 -466 1749 -482 24 -26 -821
178 -1504 362 -214 58 -397 105 -406 105 -15 0 -56 -37 -48 -43 2 -2 357 -92
789 -200 741 -186 1117 -288 1178 -322 79 -43 -49 -14 -993 220 -412 102 -812
201 -888 219 l-138 34 -89 -102 c-50 -55 -90 -106 -90 -112 0 -6 19 -14 43
-18 86 -13 580 -119 847 -182 630 -147 1050 -269 1050 -305 0 -17 -30 -11
-506 106 -615 152 -933 226 -1228 286 l-259 53 -39 -43 c-21 -24 -38 -47 -38
-51 0 -3 80 -26 178 -50 244 -59 842 -217 872 -230 97 -42 -362 49 -1083 214
-24 6 -105 -94 -85 -104 14 -8 236 -47 487 -85 326 -50 584 -115 1711 -431
772 -217 965 -286 965 -344 l0 -25 -135 1 c-211 2 -374 40 -1535 354 -225 61
-500 133 -610 160 -349 86 -967 230 -986 230 -23 0 -86 -88 -67 -95 7 -2 83
-16 168 -30 648 -109 994 -194 1755 -430 333 -104 345 -107 635 -145 381 -50
520 -76 739 -136 68 -19 126 -32 129 -29 3 3 -11 58 -32 123 -61 192 -67 244
-73 579 -6 347 2 443 52 638 36 140 78 247 125 322 17 26 30 53 30 60 0 23 90
195 148 283 70 105 332 376 452 467 99 74 409 232 567 288 195 69 233 75 532
85 151 6 276 12 278 14 2 2 -25 20 -59 40 -76 45 -899 607 -958 654 -33 27
-39 36 -29 48 6 8 19 14 29 14 22 0 397 -186 565 -279 233 -131 451 -281 616
-425 l62 -54 96 0 c53 0 107 -2 121 -4 35 -4 38 31 6 70 -30 35 -32 42 -11 42
8 0 32 -34 55 -80 39 -78 40 -80 18 -80 -13 0 -30 -5 -38 -10 -13 -9 -13 -11
0 -19 17 -11 121 -25 199 -25 51 -1 56 1 78 33 13 19 23 43 23 54 0 16 -7 13
-45 -22 -64 -59 -72 -51 -20 20 25 34 45 68 45 77 0 35 -45 105 -98 152 -31
27 -51 50 -45 50 21 0 88 -62 135 -125 39 -51 63 -72 119 -101 40 -21 87 -57
112 -84 l43 -47 139 -5 c156 -5 177 -12 317 -105 109 -72 90 -70 -58 6 -122
62 -148 71 -211 77 -53 5 -73 3 -73 -5 0 -19 176 -99 315 -143 97 -30 147 -52
195 -86 l65 -45 -46 49 c-79 86 -80 92 -9 52 80 -45 244 -110 328 -132 34 -9
88 -28 120 -43 75 -35 194 -153 155 -153 -5 0 -39 25 -78 56 -69 56 -122 85
-179 98 -26 6 -28 5 -16 -9 18 -21 8 -28 -24 -15 -47 18 -52 11 -14 -20 19
-16 39 -42 43 -57 3 -15 26 -55 51 -87 26 -35 44 -70 44 -85 0 -24 -5 -21 -55
34 -47 52 -54 57 -55 36 0 -13 -21 -48 -50 -81 -27 -32 -50 -67 -50 -78 0 -22
-29 -46 -97 -81 -31 -15 -61 -21 -113 -21 -38 0 -70 -2 -70 -4 0 -2 27 -62 61
-132 176 -371 232 -603 264 -1084 13 -200 16 -221 44 -293 36 -90 45 -127 66
-269 18 -121 23 -140 36 -133 24 15 -3 -39 -39 -77 -26 -29 -46 -29 -35 -1 6
14 0 15 -40 10 -25 -4 -61 -13 -79 -20 l-33 -15 29 -11 c16 -6 63 -14 105 -18
101 -8 120 -19 47 -28 -72 -9 -139 -1 -189 24 l-39 19 -45 -96 c-123 -267
-215 -404 -397 -589 l-80 -83 165 -167 c91 -93 176 -183 188 -201 36 -52 37
-124 7 -292 -31 -169 -66 -323 -72 -317 -3 2 5 95 16 207 19 188 24 301 13
256 -3 -13 -16 9 -37 66 -18 47 -50 110 -71 139 -47 66 -223 256 -245 264 -25
10 -56 -37 -64 -96 -10 -73 -43 -126 -115 -183 -42 -32 -81 -77 -123 -139 -33
-51 -74 -110 -91 -131 l-31 -39 129 7 c154 8 151 -6 -7 -30 -69 -10 -216 -17
-443 -21 -187 -3 -349 -9 -360 -13 -30 -11 323 -23 540 -18 185 4 196 6 422
56 128 29 244 52 258 52 42 0 85 -50 85 -98 0 -141 -301 -488 -488 -561 -166
-66 -431 -75 -579 -20 -47 18 -75 39 -144 108 -47 47 -124 139 -172 203 -47
64 -102 129 -122 145 -42 34 -44 51 -7 85 70 66 167 88 394 88 108 0 169 4
173 11 4 6 -3 21 -16 35 -23 24 -23 24 -5 74 31 85 3 96 -159 61 -92 -20 -236
-35 -425 -46 -146 -8 -183 -14 -172 -28 5 -7 15 -50 21 -96 24 -162 90 -352
255 -725 53 -120 95 -220 93 -223 -11 -10 -159 307 -259 557 -76 188 -117 315
-129 396 -14 93 -37 130 -86 143 -68 17 -153 24 -153 12 0 -6 67 -165 149
-353 82 -189 194 -452 250 -585 55 -133 115 -271 132 -305 52 -104 133 -219
201 -284 109 -105 189 -134 370 -134 255 0 460 30 566 84 163 83 332 333 422
626 77 253 220 685 271 820 48 126 67 166 75 157 7 -6 -65 -255 -151 -527 -46
-146 -93 -299 -105 -340 -12 -41 -23 -81 -25 -87 -12 -37 11 1 71 115 37 70
117 217 179 327 143 254 179 327 249 501 l56 141 0 304 c0 167 5 358 10 424 5
66 15 199 21 295 8 117 16 180 25 191 12 13 12 23 0 65 -8 27 -17 110 -21 184
-4 74 -13 166 -22 205 -15 68 -15 69 6 83 32 21 28 106 -9 227 -34 111 -36
122 -15 105 19 -16 19 -5 -1 54 -22 63 -12 68 21 12 15 -25 29 -46 31 -46 2 0
-13 37 -32 82 -19 46 -44 119 -54 163 -18 77 -18 79 0 58 10 -13 40 -61 66
-108 26 -47 49 -83 51 -81 6 6 -93 201 -133 263 -29 46 -36 83 -15 83 3 0 19
-22 34 -48 16 -26 42 -63 59 -82 l30 -35 -33 60 c-18 33 -42 76 -54 95 -27 44
-105 209 -105 221 0 5 15 9 33 9 31 0 31 1 -23 31 -73 42 -88 56 -95 91 -10
42 -1 44 43 10 51 -41 82 -52 145 -52 74 0 92 15 36 30 l-44 13 40 11 c29 9
41 18 43 34 4 23 -34 112 -62 147 -19 25 -31 11 -40 -46 -8 -49 -26 -54 -130
-39 -126 20 -130 25 -30 44 155 30 163 37 119 114 -22 38 -22 42 -6 42 14 0
17 6 13 26 l-5 25 49 -30 c27 -17 68 -45 91 -63 24 -17 45 -29 47 -27 8 8 -13
84 -24 87 -42 14 -170 172 -170 210 0 36 29 14 110 -85 98 -118 96 -116 126
-234 28 -115 85 -245 139 -319 53 -72 41 -94 -25 -45 -38 28 -59 33 -40 9 8
-8 16 -32 19 -52 5 -30 16 -43 60 -74 l54 -38 -47 0 c-33 0 -48 -5 -53 -16 -5
-14 6 -63 25 -113 5 -14 3 -14 -21 2 -15 10 -32 15 -37 12 -15 -10 -12 -442 5
-616 19 -200 29 -251 65 -325 23 -47 33 -90 45 -185 20 -162 19 -240 -5 -412
-10 -78 -26 -214 -35 -302 -16 -160 -16 -160 5 -177 34 -27 257 -110 560 -208
157 -50 413 -143 570 -205 157 -62 400 -150 540 -194 297 -94 373 -123 518
-193 120 -59 164 -94 237 -193 29 -38 104 -131 167 -206 231 -277 447 -652
581 -1009 55 -148 204 -651 232 -785 38 -180 88 -363 144 -525 50 -146 73
-203 197 -475 l68 -150 2 -100 c2 -114 -5 -97 192 -492 114 -228 143 -275 267
-422 168 -199 248 -328 295 -476 31 -99 37 -264 15 -420 -19 -138 -20 -272 -2
-365 l13 -65 38 65 c22 36 83 151 137 255 479 928 754 1926 820 2974 15 246 7
890 -15 1116 -135 1390 -624 2672 -1442 3775 -279 377 -651 786 -994 1094
-1136 1020 -2530 1659 -4050 1855 -380 50 -782 67 -1210 54z m-1426 -827 c161
-53 381 -138 509 -195 72 -32 90 -57 34 -48 -39 6 -624 222 -719 265 -144 65
-53 54 176 -22z m-864 -196 c298 -90 630 -201 714 -239 65 -29 85 -51 46 -51
-19 0 -902 301 -982 335 -39 16 -48 25 -25 25 7 0 118 -32 247 -70z m-717
-630 c481 -162 703 -242 720 -259 5 -5 7 -17 4 -26 -5 -11 -14 -14 -34 -9 -48
11 -1013 343 -1106 381 -107 42 -157 70 -157 88 0 18 -4 19 573 -175z m478 21
c369 -75 399 -82 399 -96 0 -26 -60 -105 -86 -111 -44 -11 -609 134 -678 174
-40 23 -58 59 -44 85 13 26 38 23 409 -52z m4259 -406 c0 -3 -17 -16 -38 -30
-29 -19 -56 -27 -108 -30 l-69 -5 70 18 c39 10 84 26 100 35 31 17 45 21 45
12z m80 -147 c-1 -35 -17 -41 -92 -35 -77 6 -154 25 -144 34 3 3 39 0 79 -7
64 -11 78 -10 103 3 35 20 54 21 54 5z m29 -1073 c11 -30 23 -67 26 -82 l6
-28 -16 29 c-14 24 -55 131 -55 143 0 2 4 2 9 -2 5 -3 19 -30 30 -60z m-89
-945 c19 -12 -102 -12 -140 0 -18 6 -3 8 50 9 41 0 82 -4 90 -9z m-99 -104
c93 -69 143 -131 165 -202 7 -24 11 -44 9 -44 -2 0 -13 17 -26 38 -12 20 -74
90 -138 155 -64 64 -111 117 -106 117 6 0 49 -29 96 -64z m-74 -75 c22 -16 49
-42 60 -58 56 -79 133 -275 132 -335 0 -25 -9 -9 -38 72 -51 143 -80 196 -152
279 -65 76 -66 88 -2 42z m54 -697 c-56 -112 -90 -169 -91 -151 0 9 59 128
107 215 59 105 48 62 -16 -64z m23 -35 c-14 -28 -27 -49 -30 -46 -7 6 38 97
48 97 5 0 -3 -23 -18 -51z m-1886 -881 c112 -161 196 -247 275 -283 30 -14
103 -34 163 -44 l109 -19 -75 -1 c-124 -2 -238 37 -309 102 -57 54 -271 353
-271 380 0 17 14 -1 108 -135z m1367 -28 c-16 -60 -60 -175 -80 -210 l-15 -25
6 30 c8 36 70 209 85 236 16 32 18 22 4 -31z m-325 -155 c-45 -46 -50 -50 -50
-38 0 7 81 83 89 83 3 0 -15 -20 -39 -45z m-144 -100 c-18 -14 -76 -21 -76
-10 0 5 59 23 80 24 11 0 10 -3 -4 -14z m-126 -244 c41 -11 7 -23 -94 -31 -50
-4 -111 -15 -135 -24 -24 -9 -83 -21 -130 -26 -107 -12 -114 -12 -106 0 3 6
23 10 43 10 57 1 124 18 156 42 15 11 40 24 55 28 32 10 177 11 211 1z"/>
<path d="M8082 14208 c-5 -7 -17 -35 -27 -63 -9 -27 -23 -60 -31 -72 -7 -12
-10 -24 -6 -26 15 -9 216 29 220 41 7 21 -25 60 -80 97 -59 39 -62 40 -76 23z"/>
<path d="M7570 14135 c14 -8 40 -14 59 -15 29 0 32 2 21 15 -8 9 -29 15 -59
15 -45 -1 -45 -1 -21 -15z"/>
<path d="M8229 14011 c-100 -14 -101 -19 -9 -94 45 -37 92 -67 103 -67 14 0
32 -15 50 -40 39 -56 104 -105 162 -124 76 -24 225 -56 268 -56 34 0 38 2 32
21 -8 24 -1 21 78 -36 49 -35 84 -48 167 -60 l45 -7 -31 33 c-16 19 -46 55
-67 80 -59 75 -293 182 -512 235 l-100 24 75 -6 c41 -3 110 -14 152 -25 90
-22 102 -23 68 -5 -36 20 -154 50 -315 83 l-140 28 65 6 c36 3 55 6 44 7 -12
1 -34 4 -50 6 -16 2 -54 1 -85 -3z m547 -236 c39 -16 137 -85 131 -91 -2 -3
-24 5 -48 16 -24 11 -55 20 -68 20 -20 0 -21 -2 -11 -15 9 -11 10 -15 0 -15
-19 0 -320 101 -320 107 0 13 280 -7 316 -22z"/>
<path d="M8680 13740 c8 -5 24 -10 34 -10 26 0 18 6 -19 14 -22 5 -26 4 -15
-4z"/>
<path d="M8130 13916 c0 -3 14 -12 30 -21 17 -9 30 -13 30 -11 0 3 -13 12 -30
21 -16 9 -30 13 -30 11z"/>
<path d="M8697 13556 c-8 -19 45 -56 78 -56 18 1 17 2 -5 15 -23 13 -18 14 65
17 l90 3 -65 12 c-132 25 -156 27 -163 9z"/>
<path d="M8920 13420 c8 -5 29 -10 45 -10 23 0 27 3 15 10 -8 5 -28 10 -45 10
-23 0 -27 -3 -15 -10z"/>
<path d="M9057 13385 c-37 -25 -67 -48 -67 -51 0 -8 112 56 135 77 35 33 2 20
-68 -26z"/>
<path d="M9481 13193 c41 -60 76 -105 77 -101 5 12 -56 117 -91 158 -63 73
-57 48 14 -57z"/>
<path d="M9430 12961 c0 -11 80 -85 109 -100 38 -21 24 10 -29 61 -46 44 -80
61 -80 39z"/>
<path d="M1613 11924 c-9 -15 -12 -29 -7 -34 5 -4 151 -40 324 -80 1088 -246
2095 -501 2133 -539 22 -22 -37 -10 -451 93 -229 58 -721 177 -1092 266 -371
89 -736 177 -810 195 -74 18 -137 32 -141 30 -7 -5 -149 -241 -149 -248 0 -8
66 -22 515 -107 684 -131 1312 -261 1660 -345 336 -81 1324 -341 1448 -381
163 -53 -92 2 -1108 241 -756 178 -753 177 -1410 305 -579 113 -976 184 -1097
196 -63 6 -68 5 -68 -13 0 -17 15 -23 98 -42 366 -85 600 -134 1100 -231 312
-61 659 -131 772 -156 420 -93 1392 -338 1539 -388 206 -71 369 -208 276 -232
-43 -11 -254 25 -555 93 -863 195 -1697 346 -2435 444 -209 27 -515 72 -680
99 l-300 50 -15 -21 c-24 -37 -158 -335 -225 -505 -293 -735 -467 -1518 -516
-2319 -13 -218 -7 -862 11 -1050 58 -630 172 -1182 360 -1746 483 -1450 1395
-2708 2630 -3629 164 -122 487 -335 675 -446 202 -118 609 -323 831 -417 163
-70 440 -177 455 -177 9 0 55 199 68 290 6 41 15 125 21 185 13 129 19 156
111 461 l69 231 -36 77 c-31 64 -37 91 -45 178 -19 240 -20 235 87 498 l95
235 -12 126 c-18 190 -7 509 27 754 19 137 27 243 27 335 l0 135 -60 210 c-59
206 -80 289 -184 744 -48 213 -143 572 -171 654 -8 21 -18 39 -23 40 -6 1 -30
-38 -54 -86 -39 -80 -44 -97 -53 -200 -14 -173 -34 -283 -58 -329 -21 -41 -22
-46 -10 -150 19 -162 2 -227 -83 -325 -44 -52 -45 -54 -52 -140 -3 -49 -11
-107 -17 -131 -22 -88 -162 -179 -457 -298 -79 -32 -157 -67 -175 -79 -40 -27
-128 -143 -167 -221 -22 -44 -37 -101 -55 -200 -41 -238 -80 -337 -177 -459
-139 -174 -301 -258 -687 -359 -74 -20 -196 -56 -270 -81 -229 -77 -300 -78
-447 -5 -94 46 -138 91 -213 215 -27 44 -83 128 -126 185 -42 58 -91 134 -108
170 -30 64 -31 68 -30 210 0 80 2 210 5 290 4 130 1 155 -21 245 -22 89 -25
121 -25 280 1 171 2 184 29 265 63 188 139 298 318 458 157 141 222 227 341
449 253 472 300 566 318 640 11 43 42 118 71 172 160 300 276 544 360 764 l49
128 -85 117 c-165 229 -309 490 -342 620 -28 113 15 227 111 290 62 41 112 54
198 54 109 -1 170 -36 315 -176 65 -64 122 -116 125 -116 3 0 36 57 73 128
131 251 261 465 360 594 24 31 44 59 44 62 0 3 -72 28 -160 56 -144 46 -192
69 -142 70 10 1 2 9 -20 21 -38 19 -50 39 -25 39 16 0 154 -37 190 -52 21 -8
25 -14 16 -24 -8 -10 7 -18 71 -38 44 -14 89 -26 99 -26 16 0 117 108 109 115
-2 2 -79 23 -173 48 -161 44 -564 175 -612 200 -17 10 10 11 131 8 l153 -3 22
28 c29 37 46 36 306 -11 110 -20 235 -39 278 -42 l78 -6 50 56 c39 44 78 72
177 126 70 38 138 81 151 95 l23 25 -40 10 c-154 42 -238 53 -353 46 -105 -6
-129 -4 -230 19 -153 35 -351 70 -1339 240 -113 20 -315 58 -450 85 -282 57
-731 133 -1135 191 -407 59 -477 71 -504 85 -23 11 -25 18 -22 71 1 33 6 63
11 68 12 12 250 -29 830 -144 272 -54 508 -100 524 -103 24 -4 36 1 58 25 l29
31 92 -7 c368 -27 1111 -158 2287 -403 468 -97 509 -104 557 -94 29 6 69 19
90 30 l38 19 -43 12 c-78 20 -416 87 -967 190 -297 55 -808 153 -1135 216
-327 63 -724 140 -882 170 -448 85 -635 130 -888 215 -133 44 -212 80 -193 86
6 2 132 -12 280 -31 147 -20 432 -56 632 -81 757 -96 1778 -292 2931 -565 228
-54 429 -101 445 -104 25 -5 53 4 142 48 61 30 114 59 117 64 4 6 -171 54
-441 121 -683 168 -764 185 -1838 376 -774 138 -1190 218 -1695 326 -627 134
-852 188 -789 189 55 1 2692 -486 3174 -586 276 -58 1049 -228 1335 -294 301
-70 368 -77 418 -42 17 13 32 29 32 35 0 7 -42 41 -92 77 -165 117 -523 484
-662 678 -98 135 -110 150 -137 161 -13 6 -112 29 -219 51 -377 80 -679 152
-1080 260 -900 242 -1160 306 -1880 459 -234 50 -433 93 -443 95 -11 3 -24 -5
-34 -20z m102 -2023 c230 -57 552 -115 1170 -210 215 -33 488 -76 607 -96 120
-19 228 -35 239 -35 19 0 20 2 8 16 -7 9 -57 50 -111 91 -55 42 -103 84 -108
94 -14 25 15 32 87 20 496 -85 1081 -181 1096 -181 19 0 18 3 -9 31 -45 49 3
20 68 -41 38 -36 48 -49 35 -50 -10 0 -244 36 -520 79 -565 89 -621 96 -616
84 2 -5 38 -38 79 -74 41 -36 76 -73 78 -82 6 -33 -64 -24 -998 119 -801 123
-1142 185 -1220 222 -38 18 -57 59 -23 48 10 -3 72 -19 138 -35z m-155 -216
c507 -46 1764 -221 1992 -277 172 -42 45 -31 -423 36 -564 81 -1175 164 -1549
211 -157 19 -289 37 -295 39 -24 10 123 5 275 -9z m1590 -766 c391 -35 663
-77 514 -78 -95 -2 -903 81 -973 99 -55 15 194 3 459 -21z"/>
<path d="M8760 11528 c-76 -220 -161 -379 -297 -552 -135 -171 -417 -406 -578
-481 -217 -101 -267 -126 -263 -130 9 -9 147 43 313 117 176 79 451 313 594
505 92 123 187 309 234 458 33 104 55 205 44 205 -2 0 -23 -55 -47 -122z"/>
<path d="M9632 11623 c-14 -27 -44 -134 -39 -140 6 -5 63 67 78 100 6 14 9 33
6 41 -8 21 -34 20 -45 -1z"/>
<path d="M9119 11470 c-12 -66 -20 -122 -16 -126 12 -12 117 59 117 79 0 24
-60 167 -70 167 -4 0 -18 -54 -31 -120z"/>
<path d="M9692 11410 c1 -116 -1 -132 -30 -215 l-32 -90 5 55 c19 216 19 245
2 232 -20 -17 -67 -110 -67 -134 0 -10 7 -18 15 -18 30 0 28 -31 -4 -64 -39
-41 -54 -119 -46 -246 6 -86 -4 -128 -32 -138 -10 -3 -13 14 -14 60 0 52 -2
59 -10 38 -12 -30 -8 -494 4 -506 17 -17 82 30 104 76 25 49 62 205 63 259 l0
33 -37 -32 c-47 -42 -54 -24 -14 32 29 41 31 50 39 173 8 123 9 127 17 75 8
-51 9 -53 16 -25 33 129 52 487 29 540 -6 13 -9 -25 -8 -105z"/>
<path d="M5485 11468 c24 -80 141 -297 207 -384 41 -55 89 -120 107 -146 19
-28 40 -48 50 -48 11 0 53 -30 94 -67 61 -56 98 -79 203 -127 222 -102 453
-171 735 -221 217 -38 326 -35 536 14 296 70 327 89 73 46 -124 -21 -176 -25
-355 -24 -178 0 -217 3 -254 18 l-44 18 114 6 c63 4 176 7 252 7 114 0 161 5
276 29 184 39 211 51 211 91 l0 30 -56 -2 c-32 -2 -58 1 -60 7 -6 19 102 83
216 128 63 25 140 56 170 71 30 14 56 23 59 20 3 -2 -15 -25 -39 -49 -52 -53
-35 -61 30 -14 56 41 196 176 190 183 -3 3 -39 -15 -80 -39 -70 -41 -92 -48
-314 -95 -132 -27 -242 -50 -244 -50 -19 0 31 31 131 82 67 33 117 63 110 65
-6 2 -60 -16 -120 -40 -175 -73 -239 -80 -438 -52 -161 22 -336 64 -597 141
-10 3 -18 0 -18 -6 0 -19 190 -101 282 -121 48 -10 158 -30 245 -44 87 -14
170 -28 186 -31 44 -9 32 -31 -23 -43 -66 -14 -73 -14 -66 4 7 18 11 18 -67 0
-64 -15 -65 -15 -226 25 -201 49 -271 76 -545 207 -120 57 -220 102 -223 99
-3 -2 34 -34 82 -69 104 -77 332 -197 447 -236 100 -34 112 -51 34 -51 -100 0
-411 157 -671 338 -84 59 -115 73 -115 53 0 -27 225 -203 368 -288 50 -31 92
-59 92 -64 0 -13 -5 -12 -85 25 -105 49 -190 107 -358 244 -153 126 -187 150
-187 133 0 -13 87 -116 141 -167 50 -47 181 -153 252 -204 66 -47 40 -51 -36
-4 -113 68 -241 181 -377 333 -74 82 -136 148 -138 146 -9 -8 40 -99 106 -197
78 -116 152 -189 278 -274 140 -93 423 -219 625 -278 98 -28 121 -52 30 -31
-218 51 -521 180 -687 293 -197 133 -276 228 -440 525 -55 100 -84 136 -69 85z"/>
<path d="M8601 11374 c-121 -215 -272 -423 -442 -607 -50 -54 -89 -100 -86
-103 5 -6 145 111 238 198 112 105 347 502 337 569 -2 16 -15 0 -47 -57z"/>
<path d="M9170 11349 c-41 -28 -82 -57 -90 -66 -14 -14 -10 -15 35 -8 71 9
130 40 145 75 11 27 7 51 -8 49 -4 0 -41 -23 -82 -50z"/>
<path d="M5950 10746 c0 -27 117 -104 265 -177 163 -80 327 -127 552 -159 143
-20 328 -26 352 -11 23 14 0 19 -140 30 -125 10 -328 42 -479 77 -115 26 -382
144 -485 214 -62 41 -65 43 -65 26z"/>
<path d="M6314 10443 c37 -19 249 -86 347 -109 54 -12 138 -18 311 -21 251 -5
415 6 470 32 l33 15 -30 -5 c-16 -3 -149 -8 -295 -11 -255 -6 -271 -6 -430 20
-91 14 -221 42 -289 61 -137 38 -161 42 -117 18z"/>
<path d="M8216 10235 c-82 -46 -212 -110 -288 -141 -83 -34 -138 -62 -138 -71
0 -21 44 -33 117 -33 85 0 131 22 215 101 59 57 60 59 23 39 -39 -22 -39 -22
-21 -1 20 22 57 36 126 46 87 14 140 55 140 110 0 21 -5 35 -12 35 -7 0 -80
-38 -162 -85z"/>
<path d="M9480 10178 c-6 -40 -32 -136 -57 -213 -64 -198 -65 -219 -17 -387 9
-32 -11 -19 -49 32 -21 28 -42 50 -47 50 -16 0 -62 -101 -145 -315 -69 -180
-184 -446 -237 -548 -11 -22 -18 -41 -15 -43 2 -2 32 49 67 113 70 129 92 139
35 16 -22 -48 -38 -96 -39 -125 -2 -33 -13 -64 -35 -99 -17 -28 -30 -54 -27
-56 9 -9 145 119 228 212 173 196 283 402 369 695 20 67 23 104 27 333 3 215
1 271 -13 333 -9 41 -20 74 -25 74 -4 0 -13 -33 -20 -72z"/>
<path d="M8104 9958 c-55 -70 -117 -165 -87 -133 21 22 163 215 158 215 -3 0
-35 -37 -71 -82z"/>
<path d="M7987 9878 c-37 -51 -43 -65 -18 -43 22 19 57 75 47 75 -3 0 -16 -15
-29 -32z"/>
<path d="M7789 9873 c-13 -15 -12 -15 9 -4 23 12 28 21 13 21 -5 0 -15 -7 -22
-17z"/>
<path d="M7869 9878 c-8 -7 -21 -22 -29 -33 -8 -11 0 -7 18 9 18 17 32 31 32
33 0 6 -6 3 -21 -9z"/>
<path d="M8470 9769 c-8 -5 -27 -9 -41 -9 -16 0 -33 -9 -42 -22 -15 -23 -15
-23 -30 -3 -14 19 -16 19 -69 2 -30 -9 -69 -17 -86 -17 -32 0 -72 -29 -72 -52
0 -6 -9 -3 -21 7 -19 18 -23 18 -99 2 -57 -11 -88 -13 -112 -7 -42 12 -118 13
-137 1 -10 -7 -23 -3 -39 10 -32 25 -80 24 -108 -2 l-22 -21 -32 23 c-40 30
-163 40 -195 15 l-20 -15 20 -7 c11 -4 35 -20 53 -36 18 -15 37 -28 43 -28 6
0 28 -14 50 -32 35 -28 42 -30 65 -19 23 10 29 9 51 -15 21 -23 30 -26 65 -21
32 4 48 0 77 -19 31 -20 44 -23 89 -17 37 4 57 12 67 26 12 17 16 18 30 7 23
-19 107 -17 138 3 15 9 42 17 62 17 29 0 43 7 69 36 29 31 34 34 45 20 17 -20
35 -20 51 0 8 8 28 21 46 29 18 7 40 25 49 39 10 15 27 26 40 26 14 0 26 9 33
25 21 46 11 73 -18 54z"/>
<path d="M8160 9441 c-14 -5 -52 -20 -86 -34 -59 -25 -63 -25 -115 -12 -30 8
-77 15 -104 15 -47 0 -54 -3 -94 -44 l-43 -43 64 -7 c67 -7 313 8 364 23 66
19 134 68 134 96 0 11 -12 15 -47 14 -27 0 -59 -4 -73 -8z"/>
<path d="M8327 9375 c-8 -7 -20 -27 -27 -44 -10 -24 -16 -29 -26 -20 -18 15
-49 3 -68 -26 -17 -25 -46 -34 -46 -15 0 8 -67 9 -212 5 -192 -6 -222 -5 -308
14 -52 11 -96 18 -99 16 -2 -3 9 -22 26 -43 21 -26 42 -40 69 -45 21 -5 48
-14 59 -20 71 -39 330 -38 456 2 107 34 219 117 219 162 0 23 -26 31 -43 14z"/>
<path d="M8907 8684 c-40 -56 -74 -112 -60 -99 20 21 81 101 92 123 20 37 2
25 -32 -24z"/>
<path d="M12258 8505 c-97 -36 -183 -127 -324 -337 -104 -157 -141 -244 -169
-399 -53 -292 -54 -296 -129 -467 -138 -316 -189 -528 -136 -565 18 -13 29
-12 88 6 76 22 91 34 174 134 38 47 64 91 74 122 16 54 40 84 28 35 l-7 -28
29 18 c16 10 39 28 51 39 13 11 25 18 28 15 3 -2 -4 -13 -15 -23 -28 -26 -25
-35 13 -35 39 0 83 26 164 97 93 82 102 59 12 -28 -56 -55 -104 -89 -185 -133
-60 -32 -128 -74 -150 -92 -43 -35 -107 -121 -99 -134 3 -4 28 -11 57 -15 50
-8 43 -9 -102 -25 -132 -15 -159 -16 -182 -4 -21 11 -53 12 -165 4 -76 -6
-162 -12 -191 -13 -102 -7 -303 -136 -448 -289 l-42 -43 14 -124 c16 -144 32
-183 92 -228 63 -48 132 -65 207 -53 33 6 137 17 230 25 94 8 211 23 260 34
50 11 133 23 185 26 l95 6 -65 -35 c-64 -33 -64 -34 -36 -41 23 -6 25 -10 13
-17 -52 -28 -515 -63 -749 -56 l-156 5 -61 -50 -61 -50 6 -66 c20 -228 31
-258 110 -297 94 -46 214 -63 565 -78 222 -10 335 -19 358 -28 l34 -13 -39
-27 c-33 -23 -54 -28 -134 -33 -171 -12 -472 18 -685 69 -40 10 -63 11 -70 5
-14 -14 -11 -155 4 -207 26 -92 104 -141 304 -192 124 -31 294 -61 492 -86 72
-9 134 -20 139 -25 6 -6 3 -9 -8 -9 -16 0 -15 -4 8 -34 26 -35 33 -52 17 -42
-4 3 -118 23 -252 46 -134 22 -295 54 -357 70 -62 17 -117 28 -122 25 -14 -9
-12 -44 5 -102 11 -36 27 -62 57 -88 123 -112 616 -274 837 -276 110 -1 133 9
60 28 -53 13 -219 115 -219 134 0 12 -9 14 105 -26 149 -52 196 -48 289 26 38
31 52 37 54 26 5 -23 -25 -77 -66 -119 -20 -21 -33 -40 -31 -43 9 -8 105 62
172 125 36 33 67 60 71 60 4 0 -1 -14 -10 -31 -28 -54 4 -21 75 79 87 123 117
177 187 337 87 201 105 246 102 257 -3 9 -82 -90 -91 -115 -2 -6 -7 -9 -11 -5
-11 10 19 61 100 170 87 117 106 152 134 245 l20 68 -5 -78 c-7 -98 -7 -97
-208 -514 -91 -189 -161 -343 -156 -343 20 0 107 91 133 140 15 27 26 50 24
50 -2 0 -26 -29 -52 -66 -27 -36 -51 -63 -53 -60 -3 3 15 38 40 78 25 40 62
116 82 168 55 141 119 259 176 323 53 60 84 77 53 30 -10 -16 -43 -60 -74 -99
-72 -90 -104 -170 -129 -323 -25 -146 -36 -174 -102 -257 -28 -35 -47 -64 -43
-64 4 0 50 27 101 61 52 33 97 58 101 54 10 -10 -75 -83 -128 -111 -25 -13
-40 -23 -34 -24 23 0 100 31 146 62 49 31 72 32 48 3 -20 -25 -6 -27 23 -4 46
36 77 100 92 196 8 49 28 122 45 162 37 90 37 101 4 70 l-27 -24 13 25 c7 14
34 56 59 94 75 113 64 35 -22 -159 -40 -89 -40 -91 -46 -245 -5 -140 -8 -159
-30 -193 -13 -21 -21 -40 -19 -42 2 -3 27 11 56 30 56 38 85 46 60 18 -23 -28
-68 -114 -55 -107 7 4 25 16 40 27 38 26 43 17 17 -33 l-22 -43 36 7 c41 8 42
6 20 -37 l-17 -32 25 23 c31 28 38 28 38 -3 0 -23 2 -24 20 -15 18 10 20 8 20
-26 0 -37 0 -37 21 -18 16 15 22 16 28 5 5 -8 14 -10 21 -6 13 8 10 -17 -6
-59 -7 -17 11 -22 21 -6 3 5 16 15 27 21 22 12 23 4 2 -45 -6 -16 -4 -18 10
-13 15 6 17 3 13 -13 -5 -21 7 -28 18 -10 3 5 16 15 27 21 20 11 21 10 14 -42
l-7 -54 41 40 42 40 -7 -51 c-7 -58 3 -74 30 -44 17 19 19 19 31 2 7 -9 14
-30 14 -45 l0 -29 39 31 39 31 -13 -52 c-17 -62 -10 -74 19 -34 11 16 29 38
39 50 18 21 18 20 13 -21 -3 -23 -9 -50 -13 -60 -5 -12 5 -7 31 15 21 18 40
31 43 28 3 -3 -2 -26 -11 -52 -21 -63 -21 -63 20 -23 l37 34 -6 -32 c-8 -43 2
-41 37 7 16 21 33 37 37 34 4 -2 1 -26 -6 -52 -29 -93 -11 -94 36 0 17 33 32
58 34 56 5 -5 -24 -117 -36 -140 -17 -31 4 -20 54 29 42 41 48 44 42 23 -4
-14 -14 -38 -22 -55 l-15 -30 36 34 c19 19 38 32 41 29 3 -3 -3 -29 -15 -57
-11 -28 -20 -54 -20 -57 0 -4 21 22 46 57 57 78 53 73 59 67 3 -3 -8 -38 -25
-78 -17 -40 -28 -75 -26 -77 2 -2 31 21 65 53 62 57 70 60 50 21 -6 -13 2 -7
20 13 42 49 39 25 -7 -46 -56 -87 -58 -91 -33 -69 13 11 43 48 68 83 25 34 46
62 49 62 6 0 -16 -53 -37 -87 -12 -18 -19 -33 -16 -33 5 0 130 191 171 262
l27 47 -25 116 c-13 64 -27 119 -30 123 -4 3 -14 -4 -22 -17 -39 -55 -61 -74
-75 -65 -17 10 -79 14 -79 4 0 -11 -71 15 -80 30 -4 7 -16 9 -29 5 -17 -5 -20
-3 -14 11 5 14 3 15 -15 5 -28 -15 -32 -14 -32 9 0 18 -3 19 -20 8 -29 -18
-32 -7 -14 52 20 67 135 363 139 358 2 -2 -10 -59 -26 -127 -16 -68 -28 -126
-26 -128 2 -2 19 37 36 87 37 102 52 122 40 52 -5 -26 -11 -60 -13 -77 l-5
-30 14 27 c9 15 26 71 39 125 l25 98 0 -55 c0 -30 -8 -103 -18 -162 -9 -59
-14 -105 -11 -103 4 3 19 56 35 120 30 126 50 151 43 56 -6 -90 8 -64 28 51
10 57 19 96 21 88 1 -8 5 -37 9 -65 l7 -50 18 50 17 50 2 -65 c2 -103 14 -117
31 -35 18 92 16 263 -4 341 -35 130 -115 270 -203 358 -86 86 -228 168 -334
194 -57 14 -380 55 -386 49 -2 -2 25 -19 62 -37 36 -19 70 -42 76 -53 8 -16
12 -17 18 -6 7 11 15 10 44 -4 36 -17 53 -46 19 -32 -10 4 -38 11 -63 16 -58
12 -214 87 -304 147 -102 67 -285 249 -379 375 -44 59 -81 107 -83 107 -1 0
10 -39 27 -87 56 -166 29 -142 -42 37 -55 138 -87 202 -142 276 -24 33 -49 70
-55 81 -6 11 -21 99 -32 194 -24 202 -26 210 -97 352 -70 141 -110 242 -133
341 -35 143 -27 183 74 399 25 54 53 125 61 158 9 33 44 130 79 217 90 224
111 320 85 389 -33 87 -161 143 -251 108z m-428 -766 c41 -52 107 -94 171
-109 27 -7 49 -16 49 -21 0 -18 -57 -8 -111 18 -75 38 -189 153 -151 153 5 0
24 -18 42 -41z m395 -748 c3 -5 -43 -28 -102 -51 -60 -23 -123 -51 -141 -62
-52 -32 -48 -14 5 25 97 70 220 116 238 88z m-410 -228 c-38 -33 -45 -20 -9
18 18 19 30 25 33 18 2 -7 -9 -23 -24 -36z m523 -318 c6 -27 -8 -105 -19 -105
-5 0 -9 30 -9 66 0 48 3 65 13 62 6 -3 14 -13 15 -23z m-192 -81 c88 -42 178
-134 131 -134 -7 0 -40 20 -73 44 -33 24 -75 51 -92 60 -26 14 -169 35 -236
36 -34 0 -4 18 39 23 80 9 178 -3 231 -29z m-1348 -243 c-3 -94 -3 -96 -28
-99 -22 -2 -23 -1 -7 8 14 9 17 28 18 123 0 83 3 106 10 88 5 -14 8 -68 7
-120z m1112 89 c0 -5 -7 -10 -15 -10 -8 0 -15 5 -15 10 0 6 7 10 15 10 8 0 15
-4 15 -10z m-1193 -87 c-2 -16 -4 -3 -4 27 0 30 2 43 4 28 2 -16 2 -40 0 -55z
m1313 55 c10 -6 2 -8 -24 -4 -22 3 -44 10 -50 16 -13 13 51 2 74 -12z m75 -18
c3 -5 -1 -10 -10 -10 -9 0 -13 5 -10 10 3 6 8 10 10 10 2 0 7 -4 10 -10z m579
-356 c4 -19 10 -42 13 -50 3 -8 0 -14 -5 -14 -12 0 -17 14 -27 73 -8 50 10 41
19 -9z m181 -95 l5 -44 -14 30 c-17 34 -22 101 -6 74 5 -9 12 -36 15 -60z
m-387 -29 c26 -25 26 -22 6 -91 -23 -76 -90 -209 -124 -243 l-28 -29 -120 21
c-147 26 -170 35 -174 63 -5 39 -78 67 -203 79 -320 31 -357 38 -300 60 45 18
300 6 505 -24 96 -14 208 -26 248 -26 57 0 72 -3 72 -15 0 -25 17 -17 38 18
13 22 22 60 27 120 7 93 15 102 53 67z m-1831 -67 c-3 -10 -5 -2 -5 17 0 19 2
27 5 18 2 -10 2 -26 0 -35z m82 -53 c0 -51 -3 -69 -9 -55 -12 29 -12 164 0
145 5 -8 9 -49 9 -90z m1815 -211 c-53 -77 -59 -59 -8 23 16 24 29 37 32 30 2
-7 -8 -31 -24 -53z m342 -36 c-36 -71 -79 -126 -115 -146 -17 -10 -31 -14 -31
-8 0 15 154 201 167 201 2 0 -8 -21 -21 -47z m-2042 -163 c4 -47 3 -61 -5 -53
-6 6 -13 42 -16 80 -5 86 12 65 21 -27z m1596 0 c15 -28 -16 -184 -47 -241
-30 -56 -141 -174 -173 -184 -13 -4 -28 -1 -38 8 -9 8 -55 33 -102 55 -47 22
-96 51 -108 65 l-24 25 89 7 c264 19 293 33 323 165 28 120 53 151 80 100z
m594 -11 c7 -38 8 -74 1 -67 -9 9 -23 98 -15 98 4 0 10 -14 14 -31z m-1307
-115 c111 -16 252 -53 318 -84 l40 -18 -35 -1 c-80 -1 -423 58 -487 85 -18 7
-33 18 -33 23 0 15 75 14 197 -5z m1342 -68 c1 -16 -2 -27 -5 -23 -10 10 -23
81 -16 91 7 13 20 -27 21 -68z m-579 -85 c0 -6 -12 -23 -26 -38 -24 -27 -25
-27 -13 -3 20 41 39 62 39 41z m816 -107 c-8 -60 -25 -92 -26 -48 0 47 11 94
23 94 6 0 7 -17 3 -46z m54 -67 c0 -13 -7 -32 -15 -43 -15 -18 -16 -17 -9 16
10 54 24 69 24 27z m45 -49 c-7 -33 -25 -62 -25 -41 0 28 14 73 22 73 6 0 7
-14 3 -32z m71 -31 c-17 -60 -53 -105 -40 -51 10 44 43 118 50 111 3 -3 -1
-30 -10 -60z m70 -9 c-19 -61 -45 -112 -46 -87 0 16 34 121 46 140 15 24 15
-3 0 -53z m85 15 c-14 -50 -53 -132 -67 -144 -23 -19 -17 9 17 81 40 86 65
117 50 63z m176 -70 l-6 -78 32 80 c40 99 48 74 17 -52 -23 -89 -76 -221 -86
-211 -2 3 0 27 7 52 6 26 9 49 7 51 -3 3 -17 -12 -32 -32 l-28 -38 7 35 7 35
-22 -20 c-29 -26 -27 -20 35 132 28 68 54 123 59 123 5 0 6 -34 3 -77z m-87
-45 c-31 -85 -70 -143 -70 -103 0 24 91 213 96 199 3 -6 -9 -50 -26 -96z m-69
2 c-20 -64 -41 -99 -41 -67 0 16 22 88 40 132 22 53 23 7 1 -65z"/>
<path d="M3350 8411 c-65 -21 -122 -66 -149 -118 -18 -35 -13 -134 10 -204 38
-117 153 -331 257 -479 77 -109 420 -536 558 -693 129 -148 186 -227 165 -227
-6 0 -91 79 -188 175 -98 96 -179 175 -180 175 -2 0 -3 -25 -3 -55 0 -57 16
-101 45 -125 21 -18 83 -98 65 -84 -8 6 -37 28 -63 48 -28 21 -60 36 -76 36
-46 0 -125 -28 -169 -60 -37 -26 -44 -39 -68 -117 -15 -49 -54 -144 -86 -213
-79 -166 -90 -212 -82 -325 5 -75 3 -104 -15 -168 -11 -42 -28 -121 -37 -175
-8 -53 -22 -122 -30 -153 -7 -31 -14 -88 -14 -126 0 -62 4 -75 36 -129 87
-141 101 -204 68 -309 -8 -27 -15 -72 -15 -98 -1 -45 6 -59 88 -181 86 -127
91 -136 118 -246 37 -153 52 -188 85 -205 16 -8 95 -37 176 -65 l148 -50 125
30 c394 96 712 218 819 315 l45 41 5 82 c2 45 2 82 0 82 -3 0 -41 -9 -84 -19
-44 -11 -223 -40 -399 -65 -176 -25 -342 -50 -369 -55 l-49 -9 29 23 c33 26
29 29 -48 40 -27 3 -48 10 -48 16 0 5 2 9 4 9 2 0 136 16 297 35 543 65 652
95 756 208 49 53 58 88 50 196 -8 110 -10 114 -55 95 -118 -52 -325 -77 -627
-76 -346 0 -352 0 -322 31 9 11 9 14 0 18 -7 3 -23 14 -35 25 -21 18 -21 19
-3 13 66 -23 470 -11 714 21 180 23 355 90 367 140 4 13 7 100 8 192 1 156 -1
170 -22 214 -13 27 -35 57 -49 68 l-26 20 -57 -54 c-40 -38 -68 -57 -95 -62
-61 -11 -321 2 -580 30 -212 23 -242 29 -257 47 -10 11 -32 25 -50 30 -18 4
-56 29 -83 54 l-50 46 56 -40 c63 -46 66 -47 89 -26 18 16 62 11 340 -40 150
-28 430 -45 504 -31 90 17 146 115 171 299 8 65 15 133 15 152 0 43 -43 94
-123 146 -91 59 -317 167 -375 179 -54 12 -79 10 -457 -40 -166 -22 -225 -25
-225 -11 0 11 32 18 325 65 253 41 337 45 418 17 32 -11 57 -17 58 -13 4 26
-8 67 -43 146 -80 183 -142 280 -293 456 -151 177 -181 225 -260 420 -61 150
-103 229 -168 315 -73 98 -333 357 -382 380 -43 21 -162 30 -205 16z m700
-686 c0 -51 -232 -225 -300 -225 -36 0 -21 14 62 60 45 25 115 75 157 112 42
37 77 67 79 67 1 1 2 -6 2 -14z m-106 -1045 c7 -7 -14 -10 -62 -10 -67 0 -95
12 -54 24 25 7 104 -2 116 -14z m-185 -379 c14 -4 26 -12 28 -18 3 -8 -32 -12
-114 -15 -100 -3 -126 -7 -166 -27 -86 -42 -84 -94 3 -120 23 -7 38 -16 35
-21 -9 -15 -62 -12 -94 5 -34 17 -59 70 -44 93 19 31 79 72 133 92 56 19 168
25 219 11z m1077 -228 c3 -25 17 -56 35 -79 16 -20 27 -39 24 -42 -9 -9 -55
29 -71 60 -20 39 -30 141 -19 195 9 42 8 49 31 -134z m99 -52 c-5 -13 -7 -14
-15 -1 -14 22 -12 134 3 167 11 25 12 20 15 -61 2 -49 0 -96 -3 -105z m95 102
c0 -46 -13 -56 -30 -24 -11 22 -13 61 -3 87 6 16 7 16 20 -2 7 -10 13 -37 13
-61z m-42 -711 c7 -13 11 -31 9 -40 -3 -11 -12 0 -27 33 -26 55 -34 172 -15
230 8 24 10 8 15 -85 3 -66 11 -125 18 -138z m149 126 c-2 -13 -4 -3 -4 22 0
25 2 35 4 23 2 -13 2 -33 0 -45z m-1103 -74 c61 -15 117 -30 125 -34 7 -4 -90
-10 -215 -13 -218 -5 -234 -7 -327 -35 -55 -17 -102 -34 -105 -38 -4 -3 2 -4
13 -1 11 3 61 8 110 11 l90 5 -45 -15 c-25 -9 -82 -18 -127 -21 -75 -5 -87 -4
-138 21 -30 15 -53 31 -50 36 9 14 162 61 279 86 151 31 252 31 390 -2z m933
-356 c-3 -8 -6 -5 -6 6 -1 11 2 17 5 13 3 -3 4 -12 1 -19z m134 -75 c-8 -14
-10 -7 -11 33 0 28 3 54 8 58 11 12 14 -72 3 -91z m-94 10 c-2 -16 -4 -5 -4
22 0 28 2 40 4 28 2 -13 2 -35 0 -50z m-40 -25 c-3 -7 -5 -2 -5 12 0 14 2 19
5 13 2 -7 2 -19 0 -25z m-847 -77 c0 -20 -466 -109 -483 -92 -21 21 76 56 238
86 82 15 245 19 245 6z m840 -252 c0 -31 -4 -48 -10 -44 -5 3 -10 29 -10 56 0
31 4 48 10 44 6 -3 10 -29 10 -56z m-751 -55 c-12 -15 -61 -44 -75 -44 -4 0
10 14 31 30 40 32 66 40 44 14z m-51 -150 c12 -4 22 -10 22 -14 0 -19 -301
-124 -329 -115 -48 15 -28 61 42 97 51 25 57 18 12 -16 -55 -42 -41 -48 33
-14 65 30 167 67 187 67 6 1 20 -2 33 -5z"/>
<path d="M3467 5395 c-46 -16 -57 -25 -31 -25 23 1 105 38 84 39 -8 0 -32 -6
-53 -14z"/>
<path d="M8965 8028 c-47 -17 -109 -63 -139 -102 -44 -58 -89 -164 -113 -266
l-22 -95 0 75 c-2 94 -19 312 -26 319 -3 3 -40 -12 -81 -32 l-76 -38 6 -62 c3
-34 8 -116 11 -182 l5 -120 -54 150 c-73 203 -74 205 -88 205 -7 0 -41 -13
-75 -29 -61 -29 -80 -53 -69 -88 12 -39 51 -583 43 -583 -16 0 -102 372 -128
553 -7 48 -16 90 -21 93 -9 6 -263 -100 -285 -118 -10 -8 -13 -62 -13 -207 -1
-182 -2 -194 -16 -168 -13 24 -20 28 -42 22 -43 -10 -179 -94 -207 -127 -28
-33 -30 -50 -14 -97 12 -35 31 -39 86 -19 18 6 36 9 39 5 11 -11 -37 -105 -62
-122 -49 -32 -113 -4 -140 61 -20 49 -18 164 5 229 32 91 76 134 137 135 43 0
94 66 94 123 0 49 -95 104 -159 92 -120 -22 -210 -134 -245 -307 -44 -213 3
-421 113 -504 41 -31 49 -34 117 -34 69 0 74 2 121 39 56 44 102 110 134 194
12 31 23 56 24 55 1 -2 -2 -43 -7 -92 -5 -49 -6 -91 -4 -93 3 -3 43 13 90 36
89 43 116 72 116 124 0 27 17 47 42 47 17 0 38 -51 38 -93 0 -15 12 -11 80 23
90 45 130 51 130 20 0 -26 7 -25 79 6 l60 26 -5 127 -6 126 61 -92 c33 -51 67
-93 75 -93 9 0 44 14 80 32 l64 31 -4 61 c-3 34 -6 78 -8 99 -5 46 6 41 24
-12 16 -50 62 -106 103 -128 45 -23 134 -20 183 5 47 24 105 85 133 141 49 96
94 317 72 351 -9 13 -18 12 -73 -7 -35 -12 -88 -33 -119 -47 -55 -24 -56 -26
-63 -72 -3 -26 -6 -62 -6 -80 l0 -33 52 24 c28 13 55 22 59 19 12 -7 -11 -66
-35 -93 -46 -51 -115 -51 -142 1 -21 41 -21 158 0 229 8 30 29 71 46 91 29 36
44 42 132 62 36 8 81 82 76 128 -2 26 -11 37 -43 55 -51 27 -102 35 -140 21z
m-929 -643 c17 -106 15 -135 -10 -135 -21 0 -26 33 -25 170 1 139 7 133 35
-35z"/>
<path d="M9356 7559 c-39 -31 -47 -52 -35 -88 9 -26 7 -38 -10 -74 -34 -70
-106 -416 -90 -432 7 -7 108 20 121 33 5 5 17 41 26 78 14 58 21 70 40 72 36
5 38 -24 6 -84 -27 -51 -28 -55 -14 -81 13 -23 23 -29 62 -31 114 -7 268 132
267 243 0 51 -40 85 -101 85 -40 0 -71 16 -48 24 8 2 42 6 74 9 78 5 100 29
93 101 -5 55 -39 96 -81 96 -39 0 -119 -48 -176 -105 -70 -71 -53 -71 30 0
103 87 164 107 194 63 16 -23 21 -73 10 -103 -4 -8 -20 -23 -36 -31 -25 -13
-35 -13 -59 -4 -16 7 -35 10 -43 7 -23 -9 -47 -52 -40 -71 6 -14 15 -16 53
-12 77 10 126 -30 110 -91 -23 -82 -182 -203 -248 -188 -48 10 -54 26 -28 76
21 42 24 44 76 51 56 6 93 30 75 48 -5 5 -45 13 -87 16 l-77 7 0 51 c0 28 7
96 15 151 20 141 19 182 -4 195 -29 15 -45 12 -75 -11z m70 -20 c17 -19 17
-23 3 -47 -19 -36 -72 -43 -89 -13 -12 24 -1 54 28 70 25 15 37 13 58 -10z
m-21 -129 c14 -23 -66 -373 -92 -402 -17 -19 -58 -24 -68 -8 -6 10 38 252 60
327 8 27 24 59 35 71 22 23 54 29 65 12z m145 -280 c0 -16 -41 -22 -56 -9 -14
12 -14 14 2 19 22 8 54 1 54 -10z"/>
<path d="M9980 7549 c-13 -23 -236 -631 -270 -732 -12 -38 -20 -71 -17 -74 3
-3 94 -8 201 -11 l196 -5 -6 -38 -7 -39 55 0 c68 0 112 15 132 44 8 13 51 114
96 224 104 260 137 332 150 332 5 0 10 -10 10 -23 0 -31 18 -47 52 -47 16 0
31 -7 34 -15 8 -20 -21 -104 -127 -367 -49 -122 -89 -226 -89 -230 0 -5 48 -7
106 -6 l107 3 38 110 c20 61 70 189 111 284 l73 175 79 0 80 1 22 80 c35 126
38 120 -63 138 -49 9 -139 23 -202 32 -138 20 -159 27 -163 57 -3 21 -9 23
-70 26 -108 5 -128 -5 -154 -69 -11 -29 -61 -155 -110 -279 -52 -134 -90 -217
-92 -205 -6 28 -15 32 -99 40 -46 4 -76 12 -79 20 -9 23 15 91 117 336 54 131
99 243 99 249 0 6 -37 10 -100 10 -90 0 -100 -2 -110 -21z"/>
<path d="M8085 6728 c-184 -20 -455 -99 -657 -189 -453 -204 -827 -539 -1072
-961 -155 -267 -268 -597 -302 -878 -16 -138 -18 -463 -3 -598 32 -292 168
-679 330 -937 384 -614 998 -1012 1714 -1111 162 -22 486 -15 665 16 486 81
885 278 1248 615 363 337 651 909 712 1415 14 120 15 465 0 590 -37 328 -185
725 -373 1005 -172 256 -394 478 -642 645 -302 202 -648 333 -1023 384 -125
18 -460 20 -597 4z m592 -63 c759 -99 1424 -571 1758 -1250 258 -522 310
-1108 150 -1664 -220 -766 -831 -1362 -1613 -1577 -174 -47 -238 -54 -563 -61
-239 -5 -301 -3 -385 11 -631 106 -1194 472 -1549 1007 -174 262 -310 602
-349 870 -33 229 -29 616 9 828 42 239 143 497 294 754 121 205 319 431 516
590 326 263 725 434 1150 491 139 19 437 19 582 1z"/>
<path d="M8110 6605 c-355 -49 -692 -174 -958 -354 -118 -80 -138 -99 -120
-117 8 -8 50 -24 93 -36 44 -12 74 -23 67 -26 -6 -2 -60 9 -118 23 l-106 28
-45 -45 -45 -45 192 -62 c106 -34 221 -71 257 -82 36 -11 63 -23 60 -25 -3 -3
-80 16 -172 41 -173 48 -224 56 -107 15 184 -63 318 -113 326 -120 12 -12 -17
-5 -153 37 -188 57 -443 123 -476 123 l-30 -1 27 -14 c14 -8 90 -33 167 -55
159 -45 193 -59 185 -72 -4 -6 13 -7 42 -2 45 6 48 6 35 -10 -13 -16 -12 -17
14 -10 21 5 26 4 20 -6 -11 -18 -63 -9 -313 52 l-212 52 -32 -31 c-36 -36 -38
-34 62 -52 84 -16 408 -97 440 -110 23 -10 22 -11 -10 -5 -19 3 -120 25 -225
49 -234 54 -304 67 -318 58 -15 -9 32 -30 114 -49 100 -24 59 -30 -53 -9 -83
17 -120 15 -89 -4 8 -5 52 -16 100 -25 192 -38 714 -179 786 -213 41 -19 44
-30 13 -43 -23 -9 -23 -9 -2 -9 30 -1 34 15 34 147 0 252 27 348 131 469 112
130 235 197 397 216 50 6 92 14 92 17 0 3 -53 43 -119 88 -65 46 -127 92 -137
104 -19 20 -19 21 6 13 38 -11 144 -71 251 -142 58 -39 111 -66 135 -70 21 -3
51 -15 66 -26 30 -23 48 -16 48 19 0 13 5 24 10 24 6 0 10 -11 10 -24 0 -30
16 -36 91 -36 43 0 61 -4 65 -14 3 -8 29 -22 57 -31 112 -36 136 -48 143 -69
3 -11 20 -36 38 -55 26 -28 27 -31 6 -18 -34 24 -42 22 -83 -18 -20 -19 -43
-35 -52 -35 -21 0 -19 -9 14 -114 31 -97 96 -449 87 -472 -3 -8 -12 -14 -20
-14 -11 0 -13 8 -9 34 3 19 1 36 -6 40 -6 4 -11 1 -11 -6 0 -7 -3 -23 -6 -34
-4 -15 2 -28 17 -43 l23 -21 -29 5 c-28 6 -32 2 -55 -41 -13 -25 -46 -75 -73
-111 l-49 -65 25 -26 c46 -49 77 -104 77 -136 0 -30 -2 -28 -31 24 -16 30 -43
68 -59 85 l-30 29 -81 -39 c-86 -43 -115 -65 -83 -65 11 0 36 11 56 25 65 44
74 33 23 -29 l-35 -43 67 -6 c85 -7 103 -14 103 -39 0 -29 -110 -140 -140
-141 -14 0 -63 3 -109 8 -61 6 -82 5 -77 -3 4 -7 21 -16 39 -21 23 -7 26 -9
10 -10 -47 -2 -191 145 -166 170 5 5 34 12 64 16 68 7 89 18 89 45 0 19 -4 20
-52 14 -29 -3 -94 -8 -145 -12 l-91 -6 10 -32 c26 -77 180 -379 207 -406 29
-29 32 -30 128 -30 103 0 160 17 195 56 30 34 66 118 114 264 26 79 50 138 52
132 2 -7 -8 -48 -23 -92 -15 -44 -25 -85 -23 -91 2 -6 36 50 76 124 l72 135 0
319 c0 285 -2 329 -21 413 -11 52 -27 105 -35 118 -15 23 -15 23 18 20 30 -3
33 0 36 27 3 24 1 28 -9 18 -15 -15 -69 -17 -69 -4 0 5 9 12 19 16 10 3 21 14
24 24 3 13 13 19 31 18 21 -2 30 -12 48 -52 23 -51 23 -57 18 -250 -2 -69 4
-135 19 -214 25 -139 26 -142 0 -112 -11 13 -22 21 -25 18 -11 -11 -35 -179
-32 -225 l4 -47 17 37 c9 21 17 54 18 75 1 21 5 49 9 63 6 20 8 15 9 -25 2
-71 9 -91 39 -105 15 -7 157 -59 315 -116 158 -57 301 -112 316 -123 128 -91
274 -346 337 -588 33 -128 160 -505 189 -563 13 -25 54 -92 92 -150 38 -58 73
-114 77 -125 5 -11 11 -71 15 -134 l6 -114 42 74 c90 158 172 412 220 679 36
200 38 501 5 690 -43 253 -100 427 -212 655 -377 763 -1147 1239 -2000 1234
-96 -1 -218 -7 -270 -14z m-157 -257 c45 -17 76 -33 69 -36 -12 -4 -133 39
-162 58 -30 19 11 10 93 -22z m-235 -62 c74 -26 115 -45 95 -46 -12 0 -185 59
-192 66 -11 11 33 1 97 -20z m-390 -130 c31 -8 91 -14 132 -14 116 0 245 -51
152 -60 -28 -3 -31 -6 -21 -18 19 -23 -8 -18 -133 25 -98 34 -257 101 -205 86
10 -2 43 -11 75 -19z m1135 -1373 c-7 -2 -21 -2 -30 0 -10 3 -4 5 12 5 17 0
24 -2 18 -5z m-133 -43 c13 -8 13 -10 -2 -10 -9 0 -20 5 -23 10 -8 13 5 13 25
0z m113 -77 c-7 -2 -19 -2 -25 0 -7 3 -2 5 12 5 14 0 19 -2 13 -5z"/>
<path d="M8527 6191 c41 -37 98 -61 145 -61 14 0 31 -7 38 -15 7 -8 19 -15 27
-15 27 0 -6 38 -44 51 -21 7 -42 18 -48 25 -13 17 -109 54 -138 54 -19 -1 -17
-5 20 -39z"/>
<path d="M6570 5681 c0 -11 32 -21 173 -51 54 -12 196 -48 315 -80 243 -66
303 -78 287 -61 -17 18 -435 127 -752 196 -13 3 -23 1 -23 -4z"/>
<path d="M6526 5595 c4 -9 0 -15 -9 -15 -9 0 -25 -12 -37 -27 -19 -24 -19 -28
-5 -36 9 -5 114 -28 233 -52 329 -66 728 -162 684 -164 -6 -1 -94 17 -195 40
-362 80 -695 144 -704 135 -5 -5 125 -36 347 -81 96 -20 258 -57 360 -82 275
-68 380 -105 380 -134 0 -13 -10 -12 -340 52 -334 65 -788 139 -853 139 -12 0
-60 -109 -106 -242 -132 -385 -161 -773 -85 -1163 112 -576 466 -1106 954
-1428 123 -81 462 -252 484 -244 8 3 19 30 25 64 7 32 21 101 32 153 17 72 20
108 14 155 -11 85 -9 106 19 194 23 72 25 97 28 297 l3 219 -53 212 c-30 117
-58 215 -63 219 -14 9 -27 -34 -44 -150 -22 -141 -57 -239 -99 -270 -45 -34
-109 -65 -167 -79 -42 -11 -48 -15 -35 -26 13 -11 13 -18 0 -59 -8 -26 -21
-71 -30 -100 -21 -70 -60 -113 -131 -145 -81 -36 -227 -77 -276 -77 -36 0 -46
6 -89 51 -75 80 -97 135 -109 275 -18 200 0 276 85 371 63 70 124 169 209 339
131 262 147 316 107 367 -32 40 -90 169 -90 198 0 69 98 88 176 35 21 -14 43
-26 49 -26 11 0 26 24 88 140 22 41 49 83 61 92 28 22 18 30 -81 63 -46 14
-83 30 -83 34 0 14 85 21 169 14 73 -5 83 -4 123 20 91 53 86 61 -50 77 -48 5
-204 30 -347 55 -143 25 -357 61 -475 81 -236 40 -260 46 -260 69 0 20 27 19
142 -4 51 -11 143 -25 203 -31 206 -21 350 -42 613 -91 289 -53 376 -66 352
-51 -15 10 -194 48 -700 147 -546 107 -637 152 -160 79 155 -24 412 -73 753
-143 146 -31 257 -40 257 -22 0 5 -19 16 -42 25 -24 8 -50 17 -58 20 -14 6 26
2 133 -11 l48 -6 -134 137 c-116 118 -141 139 -189 156 -98 34 -978 250 -1021
250 -10 0 -14 -5 -11 -15z m519 -122 c99 -25 185 -49 190 -55 7 -6 0 -7 -20
-3 -141 32 -395 102 -404 111 -7 7 7 4 234 -53z m-251 -198 c197 -34 515 -93
590 -110 74 -17 87 -29 21 -20 -61 9 -707 132 -755 144 -67 17 -7 11 144 -14z
m411 -325 c29 -7 28 -8 -11 -9 -33 -1 -41 -5 -40 -18 1 -14 -8 -18 -39 -20
-22 -1 -32 1 -22 4 14 4 17 11 13 29 -6 22 -4 24 31 23 21 -1 52 -5 68 -9z"/>
<path d="M8863 5037 c-13 -37 -23 -78 -23 -92 0 -13 -6 -28 -14 -32 -20 -12
-45 -65 -82 -177 -19 -55 -34 -102 -34 -105 0 -3 21 15 46 39 86 84 138 226
132 363 l-3 72 -22 -68z"/>
<path d="M8320 4949 c0 -7 -14 -10 -35 -7 -42 5 -42 -10 1 -32 40 -21 186 -19
237 4 72 32 40 46 -105 46 -65 0 -98 -4 -98 -11z m83 -6 c-7 -2 -19 -2 -25 0
-7 3 -2 5 12 5 14 0 19 -2 13 -5z"/>
<path d="M8405 4853 c-49 -12 -38 -24 20 -22 33 1 68 -1 78 -6 12 -5 17 -3 17
8 0 25 -55 34 -115 20z"/>
<path d="M9657 4541 c-52 -57 -84 -118 -101 -191 -8 -36 -29 -105 -46 -154
-16 -50 -30 -100 -30 -113 0 -33 32 -30 67 8 22 24 99 69 117 69 2 0 1 -11 -1
-24 -3 -15 -10 -23 -18 -20 -14 6 -49 -12 -104 -51 -27 -20 -46 -25 -91 -25
-88 0 -116 -9 -165 -52 -60 -53 -69 -71 -55 -112 19 -58 71 -66 243 -39 22 3
37 2 37 -5 0 -14 -30 -20 -155 -33 -123 -12 -138 -21 -133 -78 4 -49 38 -69
123 -76 119 -10 156 -16 150 -25 -3 -5 -54 -6 -113 -4 -122 6 -142 -1 -124
-40 18 -39 52 -56 164 -78 104 -20 149 -38 92 -37 -16 0 -61 6 -101 13 -92 17
-111 6 -63 -35 32 -27 137 -67 218 -82 32 -7 45 6 17 17 -8 3 -15 10 -15 16 0
13 51 13 85 0 23 -9 31 -5 70 31 25 23 45 48 45 56 0 8 5 11 11 8 6 -4 17 1
24 11 20 26 20 -1 1 -38 -14 -27 -14 -28 8 -28 12 0 31 7 42 15 27 21 34 19
34 -12 0 -69 246 -243 343 -243 43 0 70 32 65 77 -3 24 -8 29 -43 34 -72 10
-136 57 -117 86 4 5 32 13 62 17 101 13 120 46 79 136 -28 62 -74 107 -128
124 -64 21 -97 24 -94 9 4 -17 -1 -16 -50 8 -60 31 -167 144 -204 214 -17 33
-36 85 -43 115 -7 30 -28 93 -47 139 l-34 83 51 139 c65 181 65 209 -6 209
-24 0 -40 -9 -67 -39z m31 -607 c12 -8 22 -20 22 -26 0 -6 -8 -4 -17 5 -10 8
-34 20 -53 25 l-35 10 30 1 c17 1 41 -6 53 -15z m68 -263 c-9 -16 -24 -32 -33
-35 -10 -3 -56 8 -103 25 l-85 30 85 -5 c98 -6 130 -1 130 23 0 26 15 36 18
13 2 -12 -4 -34 -12 -51z m107 -17 c-4 -10 0 -20 10 -26 24 -13 21 -28 -6 -28
-16 0 -28 -9 -36 -26 -6 -15 -14 -24 -18 -21 -7 7 12 63 32 94 18 27 27 30 18
7z m-123 -153 c-25 -49 -54 -54 -103 -16 -18 13 -44 29 -57 35 -23 9 -21 10
10 5 117 -19 115 -19 141 12 31 38 37 17 9 -36z"/>
<path d="M7006 4534 c-38 -38 -1 -124 132 -301 108 -144 114 -154 77 -124 -28
21 -30 22 -33 4 -2 -10 -17 -25 -35 -33 -22 -10 -39 -32 -58 -70 -39 -80 -44
-100 -25 -100 21 0 20 -3 -6 -53 -19 -35 -22 -57 -22 -132 2 -138 17 -217 58
-301 41 -83 69 -104 137 -104 89 0 258 62 280 102 21 39 -2 43 -122 24 -73
-11 -115 -14 -121 -8 -13 13 3 17 127 37 105 16 139 32 165 79 22 39 5 45
-125 47 l-110 1 87 14 c104 16 156 36 166 63 4 11 6 41 4 67 l-4 46 -97 -7
c-86 -6 -214 5 -229 20 -14 14 14 15 121 4 104 -11 118 -11 141 4 32 21 33 35
4 46 -23 9 -23 9 5 21 47 22 30 67 -47 119 -35 24 -45 38 -49 68 -4 25 -31 73
-78 138 -39 55 -86 129 -104 165 -72 142 -185 219 -239 164z m317 -501 c-7 -2
-19 -2 -25 0 -7 3 -2 5 12 5 14 0 19 -2 13 -5z m-103 -363 c0 -5 -17 -10 -38
-10 -21 0 -47 -7 -58 -15 -22 -16 -60 -20 -69 -6 -8 13 9 22 63 31 68 11 102
11 102 0z m15 -159 c-35 -14 -101 -23 -90 -13 12 12 41 20 80 20 25 1 26 -1
10 -7z m25 -140 c0 -12 -56 -34 -72 -28 -7 3 2 11 22 20 41 19 50 20 50 8z"/>
<path d="M8685 4349 c-33 -29 -35 -30 -35 -9 0 34 -33 21 -45 -18 -11 -38 -21
-41 -29 -7 -13 53 -46 14 -47 -57 l0 -43 -20 54 c-10 30 -21 56 -23 58 -2 2
-15 -1 -29 -8 -24 -11 -47 -46 -47 -74 0 -8 -14 -30 -31 -50 -24 -27 -29 -39
-20 -48 6 -6 11 -17 11 -25 0 -18 -40 -11 -53 10 -12 18 -4 40 38 97 29 39 21
57 -19 47 -39 -10 -58 -47 -58 -116 0 -102 48 -141 105 -84 17 17 32 24 45 20
11 -4 24 0 32 9 7 9 29 15 50 15 51 0 70 8 70 31 0 22 4 23 31 7 17 -11 22
-10 30 5 8 14 18 16 44 11 43 -8 73 9 91 51 27 66 13 93 -32 61 -16 -12 -17
-18 -7 -35 10 -16 9 -22 -3 -32 -24 -19 -38 3 -29 47 4 22 19 49 36 65 16 15
29 32 29 38 0 22 -50 10 -85 -20z"/>
<path d="M8997 4237 c-22 -33 -69 -169 -63 -183 2 -6 29 -15 58 -19 29 -3 60
-8 68 -10 11 -3 23 16 43 65 17 41 35 70 43 70 20 0 18 -25 -8 -97 -12 -35
-19 -66 -15 -69 15 -15 39 10 72 76 19 38 39 70 44 70 14 0 41 30 41 45 0 13
-32 22 -142 40 l-36 6 -17 -53 c-19 -58 -40 -88 -62 -88 -25 0 -25 29 1 86 14
31 26 63 26 70 0 22 -36 16 -53 -9z"/>
<path d="M8455 4025 c-214 -48 -368 -164 -459 -345 -25 -50 -46 -99 -45 -109
0 -9 21 27 46 79 24 52 50 98 56 102 22 14 72 8 172 -21 55 -16 103 -27 106
-25 13 7 20 124 9 145 -11 19 -10 20 9 14 13 -4 33 2 58 19 21 14 45 26 54 26
25 0 30 12 14 30 -14 16 38 -1 181 -60 34 -13 54 -70 54 -149 0 -43 -4 -71
-11 -71 -5 0 -7 5 -3 11 16 26 -26 -8 -60 -49 -41 -50 -42 -51 -19 -67 15 -11
13 -14 -16 -30 -53 -27 -105 -3 -69 33 9 9 7 12 -9 12 -32 0 -36 -28 -11 -79
36 -71 90 -69 134 5 26 44 47 57 24 14 -6 -12 -10 -24 -7 -26 11 -12 36 66 31
95 -6 29 -5 31 24 31 42 0 139 -36 180 -67 45 -34 67 -73 97 -169 30 -98 30
-104 5 -104 -10 0 -23 -7 -28 -17 -9 -15 -10 -14 -19 3 -6 10 -13 52 -16 93
-8 103 -20 109 -56 28 -17 -38 -39 -71 -53 -78 -32 -17 -37 -27 -31 -68 8 -54
30 -101 47 -101 23 0 28 -15 35 -123 4 -56 11 -110 15 -119 6 -13 -2 -22 -35
-39 -95 -48 -146 -59 -276 -59 -80 0 -122 -4 -118 -10 8 -13 176 -13 246 0
132 25 295 140 386 272 59 87 79 145 96 270 35 274 -101 521 -358 649 -130 64
-255 82 -380 54z m251 -25 c130 -33 198 -72 294 -169 93 -94 137 -168 166
-282 24 -94 16 -260 -18 -357 -40 -112 -124 -231 -202 -284 -19 -13 -8 2 28
39 54 57 64 83 31 83 -17 0 -72 46 -85 70 -13 24 -3 50 19 50 10 0 28 -12 42
-26 25 -28 87 -59 97 -50 3 3 -2 14 -11 24 -23 25 -21 30 10 34 38 4 61 49 73
139 30 234 -7 383 -132 523 -100 113 -229 181 -368 197 -133 15 -238 0 -332
-47 -132 -66 -168 -106 -108 -119 31 -7 38 -19 20 -30 -6 -4 -17 -1 -25 5 -15
12 -65 10 -97 -5 -13 -5 -18 -3 -18 8 0 21 111 101 205 148 139 69 271 85 411
49z"/>
<path d="M9912 3906 c-35 -13 -66 -27 -69 -30 -9 -9 106 -135 138 -151 15 -8
43 -15 62 -15 19 0 55 -6 80 -14 26 -8 47 -11 47 -7 0 4 -26 59 -57 122 l-58
114 -40 2 c-23 1 -67 -8 -103 -21z"/>
<path d="M6952 3863 c-54 -81 -112 -187 -112 -206 0 -23 56 -5 92 30 44 42 90
143 86 188 -2 21 -8 40 -15 42 -6 2 -29 -22 -51 -54z"/>
<path d="M8665 3827 c-4 -9 -4 -39 0 -65 l8 -47 9 37 c11 43 -4 108 -17 75z"/>
<path d="M6936 3663 c-61 -66 -72 -73 -78 -48 -8 39 -149 -72 -169 -133 -25
-76 14 -162 73 -162 53 0 35 -38 -56 -119 -22 -19 -26 -31 -24 -60 4 -49 33
-52 91 -9 25 18 66 45 91 60 64 38 99 95 97 158 0 38 3 50 14 50 11 0 15 11
15 40 0 41 7 49 28 28 6 -6 13 -10 15 -7 4 4 -17 158 -31 230 l-7 35 -59 -63z"/>
<path d="M8050 3712 c0 -5 37 -20 83 -31 149 -40 186 -51 191 -59 3 -5 -45 0
-107 10 -62 10 -134 17 -162 16 -49 -3 -50 -4 -64 -43 -7 -22 -16 -98 -18
-170 -6 -154 6 -213 67 -335 46 -91 41 -107 -9 -26 -41 68 -68 153 -80 254
l-10 77 3 -90 c4 -110 27 -176 95 -271 102 -146 215 -225 366 -258 53 -11 3
18 -83 49 -86 32 -140 65 -192 121 -42 44 -25 36 50 -25 30 -24 79 -55 108
-69 82 -37 86 -30 90 167 l4 157 -27 32 c-15 18 -25 39 -21 47 3 8 0 17 -5 21
-17 10 -89 126 -89 142 0 9 10 26 23 40 22 23 22 24 3 38 -19 14 -19 14 2 14
43 0 21 17 -45 35 -38 9 -78 24 -90 31 -12 8 -39 14 -60 15 -36 0 -37 1 -13
11 19 7 66 4 182 -13 87 -12 161 -20 164 -16 14 14 -7 36 -58 61 -85 41 -298
90 -298 68z m165 -417 c-10 -19 -22 -35 -27 -35 -13 0 -1 48 20 80 14 21 17
22 20 8 2 -10 -4 -33 -13 -53z m-47 -103 c2 -7 -6 -12 -17 -12 -21 0 -27 11
-14 24 9 9 26 2 31 -12z m91 -78 c30 -6 30 -6 13 -33 -10 -14 -22 -35 -28 -45
-6 -11 -28 -25 -49 -33 -33 -11 -42 -11 -62 2 -30 20 -29 31 6 61 21 18 33 40
42 79 l12 55 18 -40 c14 -31 25 -42 48 -46z m-129 -13 c0 -12 -20 -25 -27 -18
-7 7 6 27 18 27 5 0 9 -4 9 -9z"/>
<path d="M9536 3331 c-3 -5 -11 -44 -17 -87 -13 -93 -6 -266 16 -414 9 -58 17
-154 18 -215 2 -103 3 -110 22 -107 23 5 86 46 180 120 87 69 365 342 365 359
0 7 -26 20 -57 28 -250 69 -274 88 -350 273 l-22 52 -75 0 c-41 0 -77 -4 -80
-9z"/>
<path d="M9749 3267 c19 -50 60 -123 75 -136 23 -19 20 -4 -8 32 -13 18 -29
49 -35 69 -7 20 -19 42 -27 49 -13 10 -13 8 -5 -14z"/>
<path d="M8535 3260 c-80 -52 -88 -178 -15 -238 21 -17 79 -42 98 -42 38 0
103 43 127 84 41 70 29 124 -40 185 -30 26 -44 31 -88 31 -35 0 -62 -7 -82
-20z"/>
<path d="M7222 3158 c-17 -40 -34 -86 -38 -103 -7 -30 -7 -30 14 -11 33 28 85
186 63 186 -5 0 -23 -33 -39 -72z"/>
<path d="M13190 6324 c-126 -27 -311 -88 -441 -146 l-67 -30 47 -62 c25 -34
73 -100 106 -145 77 -107 244 -267 323 -309 54 -29 76 -34 209 -47 187 -19
283 -38 385 -76 44 -16 83 -27 86 -25 2 3 -10 29 -28 58 -18 29 -118 221 -222
426 l-190 372 -71 -1 c-40 0 -101 -7 -137 -15z"/>
<path d="M3192 6293 c-38 -7 -150 -190 -310 -508 -50 -99 -124 -236 -165 -305
-41 -69 -73 -127 -71 -129 2 -2 72 13 156 34 101 25 161 45 177 59 21 19 188
259 269 389 65 104 85 224 66 406 l-7 61 -46 -1 c-25 -1 -56 -4 -69 -6z"/>
<path d="M3214 5670 c-22 -30 -68 -96 -101 -146 -87 -128 -172 -232 -233 -282
-56 -45 -80 -49 -40 -7 13 14 22 27 19 29 -2 2 -38 -16 -79 -40 -135 -79 -116
-47 31 53 54 36 97 68 95 70 -5 6 -142 -25 -208 -48 -220 -73 -421 -257 -506
-462 -54 -129 -74 -278 -53 -397 l8 -45 2 40 c2 55 19 33 23 -30 3 -48 4 -46
18 40 10 62 15 79 17 55 15 -199 16 -206 24 -165 4 22 9 58 10 80 1 32 4 23
15 -40 7 -44 16 -91 20 -105 6 -24 7 -24 14 -5 5 11 9 56 9 99 1 44 4 76 7 73
4 -4 13 -54 21 -112 7 -58 19 -120 26 -138 12 -29 13 -21 11 78 l-3 110 13
-62 c17 -85 26 -89 26 -13 0 35 2 61 6 58 9 -10 74 -270 74 -297 0 -18 -13
-36 -41 -60 -38 -32 -41 -32 -54 -15 -13 18 -14 17 -15 -13 0 -26 -3 -31 -16
-26 -13 5 -15 2 -10 -15 10 -32 -13 -37 -25 -5 l-10 28 -18 -24 -18 -24 -28
46 c-15 26 -30 47 -35 47 -16 0 -21 -49 -27 -232 l-6 -186 33 -59 c18 -32 63
-101 99 -153 37 -52 96 -144 132 -204 41 -69 78 -119 104 -139 42 -33 37 -23
-27 52 -40 46 -48 67 -23 57 8 -3 15 -3 15 -1 0 12 -74 111 -147 199 -74 88
-154 219 -141 231 2 2 28 -17 58 -43 l54 -47 -23 38 c-13 21 -21 41 -17 44 3
3 26 -11 51 -31 l45 -37 -20 45 c-10 25 -16 46 -13 46 4 0 27 -19 51 -42 l43
-43 -30 68 c-38 83 -39 98 -6 67 27 -25 31 -18 15 24 -14 37 1 32 30 -10 24
-36 41 -33 21 5 -6 11 -11 30 -11 42 0 19 2 20 17 8 9 -8 29 -34 45 -59 30
-46 31 -44 7 22 -19 54 -5 58 43 12 22 -21 39 -32 36 -24 -32 94 -39 122 -35
126 3 3 22 -17 43 -45 21 -28 40 -49 42 -47 2 3 -4 29 -14 60 -10 31 -14 59
-11 63 4 4 23 -9 43 -27 l35 -35 -7 58 c-4 32 -3 57 2 57 5 0 24 -21 43 -46
19 -24 35 -43 37 -41 2 1 -4 29 -12 61 -8 32 -13 63 -12 68 2 6 21 -12 42 -41
21 -29 40 -50 42 -49 1 2 -1 21 -5 43 -5 22 -12 56 -15 75 l-6 34 36 -34 c38
-37 38 -38 18 30 -7 27 8 25 36 -5 32 -34 39 -31 29 13 -17 73 -13 80 25 43
l34 -33 -9 44 c-4 24 -8 54 -8 68 0 24 1 23 35 -15 20 -22 34 -33 31 -24 -3 9
-9 38 -12 65 l-7 49 36 -34 c42 -40 43 -39 16 29 -26 65 -26 65 11 39 34 -24
33 -27 14 39 -8 27 10 30 37 5 15 -13 12 0 -13 73 -32 90 -50 232 -35 271 6
14 14 6 37 -40 30 -58 49 -67 49 -21 0 17 8 27 25 34 21 8 25 16 24 52 -1 58
-22 124 -39 120 -17 -4 -8 95 12 130 12 22 13 21 16 -22 2 -25 9 -52 17 -60 7
-8 26 -45 41 -82 15 -38 29 -66 31 -64 3 3 -43 178 -62 234 -2 6 -1 12 3 12 4
0 31 -49 60 -108 121 -246 183 -329 95 -127 -107 245 -119 300 -103 463 6 59
8 123 5 142 -8 40 -32 90 -44 90 -5 0 -16 -20 -25 -45 -22 -57 -37 -59 -24 -2
6 24 7 91 4 156 -5 97 -3 123 15 183 11 38 19 74 16 81 -2 6 -21 -13 -43 -43z
m5 -590 c0 -51 -5 -97 -14 -115 -13 -29 -13 -28 -14 35 -1 36 2 96 6 135 8 91
22 59 22 -55z m-144 -157 c-9 -62 -25 -63 -19 -1 3 29 8 64 12 78 6 25 6 25
10 -4 2 -17 1 -49 -3 -73z m-69 -90 c-9 -91 -29 -120 -22 -33 5 65 13 100 23
100 3 0 3 -30 -1 -67z m-112 -231 c-3 -40 -10 -75 -15 -78 -10 -6 -12 156 -2
182 13 35 24 -29 17 -104z m-86 -14 c16 -108 16 -136 1 -121 -12 12 -29 203
-18 203 3 0 11 -37 17 -82z m-63 -111 c5 -49 4 -77 -2 -77 -12 0 -23 73 -22
144 1 71 15 32 24 -67z m-50 -98 c7 -94 -10 -62 -19 36 -5 49 -4 65 4 54 5 -9
12 -50 15 -90z m-60 -15 c8 -32 15 -72 15 -88 0 -49 -19 -17 -35 60 -27 130
-12 152 20 28z m-67 -16 c32 -114 35 -131 20 -126 -12 4 -39 92 -51 171 -9 60
8 34 31 -45z m-24 -103 c20 -54 34 -100 32 -102 -18 -18 -73 108 -82 186 -7
62 6 40 50 -84z m-42 -58 c20 -72 19 -110 -2 -77 -12 19 -51 163 -56 209 l-4
36 21 -45 c11 -25 30 -80 41 -123z"/>
<path d="M3435 4688 c11 -34 48 -93 52 -81 5 15 -35 103 -47 103 -7 0 -9 -9
-5 -22z"/>
<path d="M3425 4390 c9 -16 18 -30 21 -30 2 0 -2 14 -11 30 -9 17 -18 30 -21
30 -2 0 2 -13 11 -30z"/>
<path d="M12072 4340 c-92 -27 -203 -34 -311 -20 -51 6 -95 10 -98 7 -5 -6
-31 -262 -63 -620 -28 -323 -28 -413 5 -567 64 -306 155 -964 155 -1119 0 -53
-7 -151 -16 -219 -16 -117 -16 -128 1 -203 10 -43 21 -79 25 -79 7 0 160 98
306 197 536 362 1099 880 1542 1416 41 49 59 78 50 81 -7 2 -69 22 -138 44
-69 23 -216 59 -326 81 -210 42 -345 83 -431 133 -198 112 -296 241 -433 567
-57 138 -112 251 -142 294 -22 31 -37 32 -126 7z"/>
<path d="M12316 4263 c9 -21 27 -60 41 -87 14 -27 40 -88 58 -136 71 -186 139
-294 253 -402 39 -36 99 -82 134 -101 106 -60 108 -53 6 17 -100 67 -116 83
-75 71 25 -8 7 13 -132 157 -76 78 -90 111 -29 65 63 -46 63 -41 1 27 -57 63
-85 107 -48 76 25 -21 17 5 -10 30 -31 29 -32 45 -2 29 18 -10 17 -6 -8 21
-19 21 -26 34 -18 37 11 4 -151 212 -177 228 -5 3 -2 -11 6 -32z"/>
<path d="M3595 4220 c10 -11 20 -20 23 -20 3 0 -3 9 -13 20 -10 11 -20 20 -23
20 -3 0 3 -9 13 -20z"/>
<path d="M4183 4203 c-40 -13 -73 -29 -73 -34 0 -5 5 -9 11 -9 6 0 8 -9 4 -20
-5 -14 -2 -20 10 -20 33 0 138 67 149 96 8 20 -16 17 -101 -13z"/>
<path d="M3760 4186 c0 -3 9 -10 20 -16 11 -6 20 -8 20 -6 0 3 -9 10 -20 16
-11 6 -20 8 -20 6z"/>
<path d="M2411 4170 c0 -8 4 -22 9 -30 12 -18 12 -2 0 25 -6 13 -9 15 -9 5z"/>
<path d="M12930 4145 c-7 -8 -8 -15 -2 -15 5 0 15 7 22 15 7 8 8 15 2 15 -5 0
-15 -7 -22 -15z"/>
<path d="M12974 4096 c-9 -15 -14 -29 -11 -32 3 -3 13 6 23 20 9 15 14 29 11
32 -3 3 -13 -6 -23 -20z"/>
<path d="M13032 4060 c-13 -16 -18 -30 -13 -30 5 0 19 14 31 30 12 17 17 30
13 30 -5 0 -19 -13 -31 -30z"/>
<path d="M13083 4049 c-6 -8 -21 -34 -33 -59 l-23 -45 23 20 c12 11 29 33 37
48 16 32 14 57 -4 36z"/>
<path d="M4083 4020 c-57 -33 -75 -51 -41 -42 l22 5 -22 -30 c-12 -17 -22 -37
-22 -45 0 -7 -9 -24 -20 -38 -11 -14 -20 -34 -20 -44 0 -10 -25 -47 -55 -81
-30 -35 -55 -66 -55 -70 0 -4 24 13 54 39 30 25 57 46 60 46 16 0 1 -22 -54
-85 -33 -38 -58 -70 -56 -73 3 -2 23 10 46 28 69 55 58 23 -21 -57 -77 -79
-76 -82 4 -25 61 44 60 29 -3 -33 -52 -52 -59 -68 -16 -40 14 10 26 13 26 7 0
-13 -63 -69 -123 -111 -26 -17 -47 -34 -47 -37 0 -6 66 29 113 60 48 32 29 -1
-35 -59 -35 -31 -102 -81 -151 -112 -48 -30 -86 -57 -84 -60 11 -10 162 72
226 124 153 121 220 234 275 468 20 83 45 183 55 223 22 83 19 85 -56 42z"/>
<path d="M13129 4009 c-20 -31 -59 -106 -59 -115 0 -14 32 22 56 62 29 49 31
97 3 53z"/>
<path d="M13177 3958 c-24 -32 -57 -92 -57 -103 0 -12 21 -3 40 18 23 24 60
90 60 107 0 20 -19 10 -43 -22z"/>
<path d="M3240 3955 c0 -5 5 -17 10 -25 5 -8 10 -10 10 -5 0 6 -5 17 -10 25
-5 8 -10 11 -10 5z"/>
<path d="M13233 3908 c-41 -59 -65 -108 -54 -108 14 0 81 78 92 107 18 47 -7
48 -38 1z"/>
<path d="M3200 3906 c0 -2 8 -10 18 -17 15 -13 16 -12 3 4 -13 16 -21 21 -21
13z"/>
<path d="M3952 3870 c-42 -30 -57 -49 -24 -31 23 14 78 60 71 61 -3 0 -25 -14
-47 -30z"/>
<path d="M13288 3863 c-45 -53 -76 -131 -41 -102 25 21 73 90 73 106 0 18 -14
16 -32 -4z"/>
<path d="M3170 3862 c0 -7 14 -26 31 -44 l31 -33 -28 40 c-16 22 -29 42 -31
44 -2 2 -3 -1 -3 -7z"/>
<path d="M13336 3799 c-21 -24 -42 -53 -48 -64 -11 -19 -10 -19 13 -4 33 23
82 85 77 100 -2 7 -20 -7 -42 -32z"/>
<path d="M3140 3822 c0 -4 11 -23 25 -42 30 -41 33 -34 4 14 -21 36 -29 43
-29 28z"/>
<path d="M3924 3789 c-19 -22 -19 -22 4 -8 12 8 22 17 22 21 0 12 -6 9 -26
-13z"/>
<path d="M3100 3782 c0 -25 33 -97 50 -107 18 -11 10 18 -20 75 -21 41 -29 49
-30 32z"/>
<path d="M13371 3742 c-31 -49 -38 -68 -22 -58 13 9 64 97 58 102 -2 3 -19
-17 -36 -44z"/>
<path d="M3034 3728 c-48 -56 -48 -54 -18 -103 16 -25 32 -45 36 -45 3 0 0 24
-8 53 -20 77 -18 87 14 52 15 -17 35 -41 45 -55 10 -14 16 -18 13 -10 -3 8
-13 41 -23 72 -10 32 -23 58 -29 58 -6 0 -19 -10 -30 -22z"/>
<path d="M13445 3689 c-26 -26 -32 -37 -18 -30 18 9 71 71 61 71 -2 0 -22 -19
-43 -41z"/>
<path d="M13494 3658 c-4 -7 -14 -24 -22 -38 -14 -24 -13 -24 3 -5 20 24 37
55 31 55 -3 0 -8 -6 -12 -12z"/>
<path d="M2961 3625 c0 -11 8 -36 19 -55 25 -45 25 -17 1 35 -13 27 -20 33
-20 20z"/>
<path d="M2920 3541 c11 -22 25 -43 31 -47 7 -4 10 -3 7 2 -3 5 -13 26 -23 47
-9 20 -21 37 -26 37 -5 0 0 -18 11 -39z"/>
<path d="M2860 3480 c6 -11 15 -20 20 -20 6 0 5 9 -2 20 -7 11 -16 20 -21 20
-4 0 -3 -9 3 -20z"/>
</g>
</svg>
